<svg width="331" height="221" viewBox="0 0 331 221" fill="none" xmlns="http://www.w3.org/2000/svg">
<g clip-path="url(#clip0_2_3)">
<path d="M223.126 7.64927C223.126 7.64927 223.9 8.53304 222.574 10.243C221.248 11.953 222.318 15.6635 224.838 15.7581C227.357 15.8526 228.578 16.904 227.971 18.289C227.364 19.674 226.634 22.965 229.377 22.4646C232.12 21.9642 232.987 23.0526 232.502 23.8891C232.016 24.7256 233.725 22.2256 233.725 22.2256C233.725 22.2256 235.254 24.4952 237.13 22.9064C239.006 21.3176 239.752 6.91566 235.927 6.67156C232.102 6.42746 223.126 7.64927 223.126 7.64927Z" fill="#2F2E41"/>
<path d="M242.517 76.1385L243.389 82.2191H247.312L246.004 75.2698L242.517 76.1385Z" fill="#9F616A"/>
<path d="M247.748 78.5273C247.748 78.5273 252.978 83.3051 251.67 83.7394C250.363 84.1738 245.568 89.3859 244.697 89.8202C243.917 90.2087 235.544 92.8606 236.852 89.8202C238.159 86.7798 241.21 85.0425 241.21 85.0425L242.082 79.8304L247.748 78.5273Z" fill="#F2F2F2"/>
<path opacity="0.1" d="M247.748 78.5273C247.748 78.5273 252.978 83.3051 251.67 83.7394C250.363 84.1738 245.568 89.3859 244.697 89.8202C243.917 90.2087 235.544 92.8606 236.852 89.8202C238.159 86.7798 241.21 85.0425 241.21 85.0425L242.082 79.8304L247.748 78.5273Z" fill="black"/>
<path d="M247.748 71.5777L248.619 77.6586H252.542L251.234 70.709L247.748 71.5777Z" fill="#9F616A"/>
<path d="M231.357 55.4364L237.07 36.6134C237.07 36.6134 227.481 27.9266 234.019 25.3205C240.556 22.7145 242.3 35.7447 242.3 35.7447L240.12 58.3305H231.404L231.357 55.4364Z" fill="#FFB8B8"/>
<path d="M244.697 41.6083C244.697 41.6083 233.432 56.0064 235.142 58.1457C236.852 60.285 239.903 73.3153 239.903 73.3153C239.903 73.3153 239.467 78.5274 241.21 78.5274C242.953 78.5274 247.312 77.6587 247.312 76.3556C247.312 75.0526 243.389 58.5476 243.389 58.5476L254.721 43.78L244.697 41.6083Z" fill="#008080"/>
<path d="M245.568 42.477L256.9 36.3962C256.9 36.3962 264.746 40.3052 262.566 43.78C260.387 47.2547 250.363 56.3759 250.363 56.3759C250.363 56.3759 253.414 71.1435 252.978 71.5778C252.542 72.0122 247.748 73.7496 246.44 73.3152C245.133 72.8809 238.159 55.9415 239.903 55.0729C241.646 54.2042 247.312 45.083 247.312 45.083L245.568 42.477Z" fill="#008080"/>
<path d="M214.624 201.88C214.624 201.88 222.469 206.658 223.341 206.658C224.212 206.658 235.98 209.698 230.75 211.87C225.52 214.042 205.471 211.002 205.907 209.698C206.343 208.395 205.907 200.577 206.779 200.577C207.65 200.577 214.624 201.88 214.624 201.88Z" fill="#2F2E41"/>
<path d="M223.341 207.961C223.341 207.961 231.186 212.739 232.057 212.739C232.929 212.739 244.697 215.779 239.467 217.951C234.237 220.123 214.188 217.082 214.624 215.779C215.06 214.476 214.624 206.658 215.495 206.658C216.367 206.658 223.341 207.961 223.341 207.961Z" fill="#2F2E41"/>
<path d="M215.06 115.881C215.06 115.881 216.367 122.396 218.547 127.174C220.726 131.951 218.111 154.537 216.803 158.012C215.496 161.487 202.856 202.749 206.779 203.183C210.701 203.618 218.547 203.183 218.547 203.183L231.186 163.658L229.007 110.669L215.06 115.881Z" fill="#333333"/>
<path opacity="0.1" d="M215.06 115.881C215.06 115.881 216.367 122.396 218.547 127.174C220.726 131.951 218.111 154.537 216.803 158.012C215.496 161.487 202.856 202.749 206.779 203.183C210.701 203.618 218.547 203.183 218.547 203.183L231.186 163.658L229.007 110.669L215.06 115.881Z" fill="black"/>
<path d="M217.675 116.315C217.675 116.315 219.418 128.042 223.341 130.648C227.263 133.254 225.956 135.86 225.956 135.86L224.212 158.881C224.212 158.881 207.215 200.577 212.445 205.789C217.675 211.001 222.469 208.83 224.648 208.395C226.827 207.961 230.75 198.84 228.571 196.234C226.392 193.628 232.929 177.992 234.673 175.385C236.416 172.779 234.673 169.305 236.852 168.436C239.031 167.567 243.825 161.921 243.825 158.012C243.825 154.103 249.927 112.406 246.004 109.8C242.082 107.194 216.938 115.179 216.938 115.179L217.675 116.315Z" fill="#333333"/>
<path d="M209.394 55.5072C214.689 55.5072 218.982 51.2291 218.982 45.9517C218.982 40.6743 214.689 36.3962 209.394 36.3962C204.098 36.3962 199.805 40.6743 199.805 45.9517C199.805 51.2291 204.098 55.5072 209.394 55.5072Z" fill="#FFB8B8"/>
<path d="M231.186 19.0226C235.518 19.0226 239.031 15.5223 239.031 11.2044C239.031 6.88657 235.518 3.38626 231.186 3.38626C226.853 3.38626 223.341 6.88657 223.341 11.2044C223.341 15.5223 226.853 19.0226 231.186 19.0226Z" fill="#9F616A"/>
<path d="M215.931 45.9517C215.931 45.9517 221.161 55.5072 223.777 55.5072C226.392 55.5072 213.316 65.4971 213.316 65.4971C213.316 65.4971 208.958 52.9012 208.086 52.4669C207.215 52.0325 215.931 45.9517 215.931 45.9517Z" fill="#FFB8B8"/>
<path d="M217.675 54.6386C217.675 54.6386 206.343 58.5477 206.779 59.8507C207.215 61.1537 203.728 64.1941 203.728 65.4972C203.728 66.8002 202.856 78.5274 208.086 88.0829C213.316 97.6384 221.597 104.588 217.675 108.931C213.752 113.275 207.65 120.659 214.188 120.659C220.726 120.659 231.186 111.103 240.774 114.578C250.363 118.052 248.184 105.022 248.184 105.022C248.184 105.022 249.491 95.0324 246.876 91.992C244.261 88.9516 235.108 67.2345 235.108 64.6285C235.108 62.0224 226.391 52.0326 224.212 52.0326C222.033 52.0326 217.675 54.6386 217.675 54.6386Z" fill="#029A9A"/>
<path d="M233.365 15.9822C233.365 15.9822 236.914 22.7068 237.101 23.9051C237.287 25.1033 243.389 15.9822 243.389 15.9822L236.416 11.2044L233.365 15.9822Z" fill="#9F616A"/>
<path d="M234.672 21.1942L242.082 13.3761L250.798 17.2852C250.798 17.2852 258.928 35.0932 259.44 36.3962C259.951 37.6992 246.44 43.78 245.132 43.78C243.825 43.78 234.672 30.3154 234.672 30.3154C234.672 30.3154 232.493 23.8003 234.672 21.1942Z" fill="#F2F2F2"/>
<path d="M231.186 31.6184V39.4368H236.416L234.696 31.6184H231.186Z" fill="#9F616A"/>
<path d="M234.17 37.4821C233.509 37.4732 232.861 37.6653 232.312 38.0327C231.764 38.4002 231.341 38.9256 231.099 39.5389C230.759 40.4571 230.874 41.4222 232.493 41.8255C235.98 42.6942 236.416 41.8255 236.416 41.8255C236.416 41.8255 242.468 40.9568 241.185 39.2195C239.902 37.4821 236.416 37.4821 236.416 37.4821H234.17Z" fill="#9F616A"/>
<path d="M252.978 75.0526C252.978 75.0526 258.208 79.8304 256.9 80.2647C255.593 80.6991 250.799 85.9112 249.927 86.3455C249.147 86.734 240.774 89.3859 242.082 86.3455C243.389 83.3051 246.44 81.5678 246.44 81.5678L247.312 76.3557L252.978 75.0526Z" fill="#F2F2F2"/>
<path d="M205.977 38.5963C206.577 38.246 207.286 37.8097 207.303 37.117C207.287 36.8625 207.197 36.6181 207.044 36.4138C206.891 36.2094 206.682 36.0541 206.441 35.9668C205.958 35.8005 205.446 35.7317 204.935 35.7645C204.739 35.7545 204.543 35.7739 204.353 35.822C203.856 35.9746 203.57 36.4769 203.179 36.8178C202.611 37.3128 201.829 37.4584 201.099 37.6471C199.876 37.9635 198.702 38.448 197.613 39.0869C197.398 39.1953 197.209 39.3498 197.061 39.5393C196.89 39.8882 196.813 40.2759 196.839 40.6635C196.741 42.1372 195.854 43.4199 195.193 44.7414C194.531 46.0629 194.096 47.709 194.873 48.9668C195.181 49.3582 195.469 49.7652 195.735 50.1863C196.285 51.3296 195.598 52.7373 195.996 53.9418C196.174 54.416 196.46 54.8427 196.83 55.1887C197.596 55.9569 198.539 56.5259 199.577 56.8458C200.567 57.1497 201.796 57.3522 202.184 58.3099C202.35 58.7207 202.316 59.2047 202.551 59.5809C202.842 60.047 203.441 60.1975 203.983 60.2969C204.591 60.4355 205.217 60.4806 205.838 60.4307C206.149 60.404 206.451 60.3145 206.726 60.1677C207.001 60.021 207.244 59.82 207.438 59.5771C207.614 59.2342 207.832 58.9144 208.086 58.6248C208.717 58.0992 209.676 58.5144 210.486 58.3751C210.815 58.3133 211.119 58.1595 211.362 57.9316C211.606 57.7036 211.779 57.4111 211.862 57.0884C211.884 56.7447 211.979 56.4095 212.141 56.1051C212.645 55.4633 213.969 55.9164 214.301 55.1722C214.517 54.6885 214.065 54.1776 213.629 53.8765C212.916 53.3855 212.12 53.0078 211.481 52.425C210.842 51.8422 210.37 50.9702 210.57 50.1305C210.87 48.8711 212.52 48.1777 212.574 46.8845C212.606 46.1437 212.071 45.4935 211.473 45.0524C210.875 44.6112 210.182 44.2943 209.648 43.7785C209.257 43.4016 208.962 42.9285 208.537 42.59C207.769 41.9779 206.718 41.9037 205.74 41.8036C205.215 41.7499 203.121 41.5083 203.204 40.7116C203.272 40.05 205.445 38.9074 205.977 38.5963Z" fill="#2F2E41"/>
<path d="M234.672 20.7599C234.672 20.7599 229.878 22.4973 229.878 24.669C229.878 26.8407 227.699 33.7902 229.878 33.7902C232.057 33.7902 236.416 32.1229 236.416 32.1229L234.672 20.7599Z" fill="#F2F2F2"/>
<path d="M233.365 52.0326C233.365 52.0326 246.005 47.6891 246.44 47.6891C246.876 47.6891 252.978 44.2144 252.542 42.9114L250.799 32.0529C250.799 32.0529 243.825 17.7196 248.62 17.7196C253.414 17.7196 256.029 29.0125 256.029 29.0125C256.029 29.0125 266.489 48.5578 260.823 52.9012C255.157 57.2446 231.622 65.0628 230.314 63.7598C229.007 62.4567 233.365 52.0326 233.365 52.0326Z" fill="#FFB8B8"/>
<path d="M245.568 23.8003L248.51 26.6256L244.697 30.3154C244.697 30.3154 239.467 28.1437 239.902 29.4467C240.338 30.7498 242.953 34.6588 244.697 34.6588C246.44 34.6588 255.513 29.0124 255.553 27.275C255.593 25.5377 249.927 19.4569 248.619 19.0225C247.312 18.5882 245.568 23.8003 245.568 23.8003Z" fill="#9F616A"/>
<path d="M240.036 20.7727C240.036 20.7727 246.44 26.4064 247.312 26.4064C248.183 26.4064 249.769 17.942 249.769 17.942C249.769 17.942 244.602 14.5872 242.688 15.5019C240.774 16.4165 240.036 20.7727 240.036 20.7727Z" fill="#F2F2F2"/>
<path d="M217.675 57.2446C217.675 57.2446 217.675 51.1638 230.75 51.1638H236.416L233.801 65.4971L225.084 68.1032L217.675 57.2446Z" fill="#029A9A"/>
<path d="M246.236 8.03567C244.954 8.02952 243.674 7.95085 242.402 7.80004C241.403 5.39335 240.13 3.37394 238.753 2.62105C237.776 1.74967 236.269 1.11643 235.086 0.615759C232.182 -0.613719 227.348 0.153137 227.065 1.55142C221.351 4.27247 222.795 9.05111 222.795 9.05111C223.683 10.9215 225.675 10.0926 227.365 9.24553C227.796 10.6014 228.815 11.752 230.275 11.8068C233.065 11.9115 234.419 13.0762 233.746 14.6106C233.073 16.1449 232.265 19.7907 235.304 19.2363C238.343 18.682 239.303 19.8877 238.765 20.8144C238.227 21.7411 240.12 18.9715 240.12 18.9715C240.12 18.9715 241.814 21.4858 243.892 19.7257C244.102 19.5239 244.252 19.268 244.325 18.9864C245.292 19.401 246.057 19.5584 246.492 19.3646C248.982 18.2544 247.436 15.6476 247.436 15.6476C247.436 15.6476 250.76 15.1395 249.689 15.2237C248.618 15.308 247.94 13.9245 249.752 11.4309C251.564 8.93725 247.915 8.09226 246.236 8.03567Z" fill="#2F2E41"/>
<path d="M229.374 6.08088L228.134 5.66943L226.895 9.37851L228.136 9.78996L229.374 6.08088Z" fill="#008080"/>
<path d="M81.7206 39.2896C81.7206 39.2896 81.2004 41.0177 84.1483 42.573C87.0963 44.1283 87.9633 50.0039 84.4951 51.732C81.027 53.4602 79.9865 55.7067 81.7206 57.262C83.4547 58.8173 86.576 62.9648 82.4142 64.0017C78.2524 65.0386 77.7322 67.1123 78.9461 67.9764C80.1599 68.8404 76.1715 66.4211 76.1715 66.4211C76.1715 66.4211 75.4779 70.5685 71.8363 69.5317C68.1947 68.4948 57.9636 48.7942 63.1659 46.0292C68.3681 43.2642 81.7206 39.2896 81.7206 39.2896Z" fill="#2F2E41"/>
<path d="M68.2841 185.796L69.4116 196.282L64.5261 199.278L60.0167 198.529L62.2712 185.796H68.2841Z" fill="#9F616A"/>
<path d="M72.0421 59.9611C77.8535 59.9611 82.5645 55.2663 82.5645 49.4749C82.5645 43.6835 77.8535 38.9886 72.0421 38.9886C66.2307 38.9886 61.5196 43.6835 61.5196 49.4749C61.5196 55.2663 66.2307 59.9611 72.0421 59.9611Z" fill="#9F616A"/>
<path d="M75.6124 54.5308C75.6124 54.5308 76.5519 70.4474 77.6793 70.4474C78.8067 70.4474 64.5262 69.6984 64.5262 69.6984C64.5262 69.6984 70.5391 59.2122 67.5327 55.8416C64.5262 52.471 75.6124 54.5308 75.6124 54.5308Z" fill="#9F616A"/>
<path d="M60.0167 138.608L64.9021 157.333L61.1438 189.167L69.7875 188.418L73.1695 138.608H60.0167Z" fill="#2F2E41"/>
<path opacity="0.2" d="M60.0167 138.608L64.9021 157.333L61.1438 189.167L69.7875 188.418L73.1695 138.608H60.0167Z" fill="black"/>
<path d="M67.5324 194.41C67.5324 194.41 67.9082 192.163 71.6662 194.41C75.4242 196.657 91.2079 203.773 82.9403 205.271C74.6726 206.769 57.7615 203.398 57.7615 202.274C57.7615 201.151 57.3857 194.035 58.889 194.784C60.3922 195.533 65.2776 200.402 67.5324 194.41Z" fill="#2F2E41"/>
<path d="M62.647 191.788C62.647 191.788 56.6342 201.151 56.2584 203.773C55.8826 206.394 50.2455 197.78 50.2455 197.78L55.5068 188.043L62.647 191.788Z" fill="#9F616A"/>
<path d="M82.5647 140.106L75.8003 162.577C75.8003 162.577 63.7746 194.41 63.023 194.035C62.2714 193.661 53.2521 191.414 52.8763 190.29C52.5005 189.167 64.1504 158.832 64.1504 158.832L65.6536 139.357L82.5647 140.106Z" fill="#2F2E41"/>
<path d="M49.1183 196.282C50.1444 196.212 51.167 196.463 52.0429 197C52.9189 197.537 53.6044 198.334 54.0038 199.279C55.507 202.649 57.386 203.024 57.7618 203.398C58.1376 203.773 56.6344 211.637 57.7618 212.386C58.8892 213.135 60.0166 221 56.2586 221C52.5006 221 46.4877 216.88 46.8635 216.131C47.2393 215.382 47.2393 210.139 46.1119 207.892C44.9845 205.645 43.1055 201.9 46.1119 199.653C49.1183 197.406 49.1183 196.282 49.1183 196.282Z" fill="#2F2E41"/>
<path d="M84.8195 105.277L85.5711 112.018C85.5711 112.018 91.2081 117.635 93.0871 124.377C94.9661 131.118 110.374 142.353 105.864 143.851C101.355 145.349 96.0935 146.098 82.9405 143.851C69.7874 141.604 49.1183 146.473 49.1183 134.114C49.1183 134.114 46.4877 130.743 44.6086 135.612C43.2851 138.937 41.7797 142.188 40.099 145.349C40.099 145.349 35.5894 137.484 37.0926 134.114C38.5958 130.743 37.0926 131.118 38.9716 127.373C40.8506 123.628 50.2457 109.771 54.0037 109.022C57.7617 108.273 64.902 98.5355 64.5261 97.412C64.1503 96.2885 84.8195 105.277 84.8195 105.277Z" fill="#008080"/>
<path d="M64.5263 63.3318C64.5263 63.3318 79.9342 66.7023 80.6858 68.9494C81.1086 70.2134 83.0771 72.5438 84.7187 74.341C87.49 77.3301 89.3324 81.0556 90.0228 85.0666C90.4147 87.4559 88.7671 89.6043 88.0139 92.3562C85.7591 100.595 84.068 98.5356 86.3228 104.528C88.5777 110.52 75.0488 112.767 69.7875 110.145C64.5263 107.524 58.7014 91.9817 58.7014 90.1092C58.7014 88.2366 53.6281 67.0768 57.7619 65.5788C61.8957 64.0808 64.5263 63.3318 64.5263 63.3318Z" fill="#333333"/>
<path d="M85.9471 81.3081L90.4567 101.157L105.301 107.711C105.301 107.711 116.575 105.089 116.951 109.209C117.196 111.899 104.173 112.954 104.173 112.954L82.5649 104.528L77.6794 86.1767L85.9471 81.3081Z" fill="#9F616A"/>
<path d="M80.6857 73.818C80.6857 73.818 90.0808 79.4356 87.8259 82.4317C85.5711 85.4278 79.9341 90.2964 78.4309 90.2964C76.9277 90.2964 75.8003 81.3081 75.8003 78.6866C75.8003 76.065 80.6857 73.818 80.6857 73.818Z" fill="#333333"/>
<path d="M71.2852 35.858C71.2852 35.858 70.7089 37.7724 73.9746 39.4954C77.2403 41.2184 78.2008 47.7274 74.3588 49.6418C70.5168 51.5562 69.3641 54.0449 71.2852 55.7679C73.2062 57.4909 76.664 62.0854 72.0536 63.2341C67.4431 64.3828 66.8668 66.68 68.2115 67.6372C69.5563 68.5945 65.1379 65.9143 65.1379 65.9143C65.1379 65.9143 64.3695 70.5089 60.3354 69.3602C56.3012 68.2116 52.2761 47.3318 56.7731 41.9541C60.9544 36.9538 71.2852 35.858 71.2852 35.858Z" fill="#2F2E41"/>
<path d="M72.5123 33.8874C72.5114 31.0827 64.0914 33.098 60.4813 37.014C57.9815 39.7258 54.1844 43.8056 57.3662 46.6814C60.548 49.5573 51.9123 53.3272 49.5963 54.4702C47.2802 55.6132 42.7074 59.1086 46.8364 61.4534C50.9653 63.7983 50.8987 66.1654 49.3448 66.7258C47.7909 67.2863 52.7708 65.8925 52.7708 65.8925C52.7708 65.8925 52.2677 70.5234 56.4632 70.5013C60.6587 70.4791 72.6953 47.5011 69.8199 41.1142C67.1462 35.1756 72.5123 33.8874 72.5123 33.8874Z" fill="#2F2E41"/>
<path d="M70.6885 33.2728C81.9483 32.5971 83.0784 41.0436 83.0784 41.0436C83.0005 45.9316 75.2114 43.5499 73.048 44.2786C70.438 42.4075 65.4071 38.8672 61.8091 36.3407C64.4212 34.5077 67.4984 33.4445 70.6885 33.2728V33.2728Z" fill="#2F2E41"/>
<path d="M158.32 131.194H154.72V214.921H158.32V131.194Z" fill="#381E1D"/>
<path d="M154.72 131.194C154.72 131.194 160.841 123.539 165.882 133.467C165.882 133.467 163.481 137.892 162.761 135.739C162.041 133.586 160.316 130.367 158.298 132.276" fill="#381E1D"/>
<path d="M154.178 116.57C154.178 116.57 163.235 125.455 158.775 132.96C158.637 133.192 158.448 133.39 158.222 133.538C157.995 133.686 157.738 133.781 157.469 133.815C157.201 133.85 156.928 133.822 156.671 133.736C156.415 133.649 156.182 133.505 155.989 133.315C154.452 131.8 152.021 128.036 149.034 118.723L154.178 116.57Z" fill="#FDA57D"/>
<path opacity="0.1" d="M147.818 69.7739C147.818 69.7739 157.18 72.6445 155.38 83.8879C153.579 95.1313 154.3 103.026 154.3 103.026L156.7 117.379L152.379 123.24C152.379 123.24 144.938 115.824 142.417 108.288C139.897 100.753 140.137 70.97 147.818 69.7739Z" fill="black"/>
<path d="M147.698 69.6543C147.698 69.6543 157.06 72.525 155.26 83.7684C153.459 95.0118 154.179 102.906 154.179 102.906L156.58 117.259L152.259 123.12C152.259 123.12 144.818 115.704 142.297 108.169C139.777 100.633 140.017 70.8504 147.698 69.6543Z" fill="#008080"/>
<path d="M136.72 197.688L135.186 209.142C135.186 209.142 139.125 210.749 140.306 210.385C141.486 210.021 143.556 211.5 143.556 211.5C143.556 211.5 152.359 214.271 154.088 211.781C155.817 209.29 151.896 208.529 148.714 206.651C145.532 204.774 144.187 197.528 144.187 197.528L136.72 197.688Z" fill="black"/>
<path d="M153.519 116.841V159.183L145.358 199.611H136.716L138.036 160.857C138.036 160.857 129.034 129.519 132.995 117.798L153.519 116.841Z" fill="#333333"/>
<path d="M146.862 122.183C146.862 122.183 159.445 123.958 160.338 132.635C160.366 132.903 160.332 133.174 160.238 133.428C160.145 133.681 159.995 133.91 159.799 134.096C159.603 134.283 159.368 134.423 159.11 134.505C158.852 134.588 158.579 134.61 158.311 134.571C156.17 134.264 151.969 132.679 144.011 126.962L146.862 122.183Z" fill="#FDA57D"/>
<path d="M148.418 67.7405C148.418 67.7405 146.378 71.2092 147.218 77.1897C147.218 77.1897 135.156 76.173 135.516 69.2356C135.516 69.2356 141.397 67.8003 142.777 62.4776L148.418 67.7405Z" fill="#FDA57D"/>
<path d="M128.319 200.2L126.784 211.654C126.784 211.654 130.724 213.261 131.904 212.897C133.085 212.533 135.154 214.011 135.154 214.011C135.154 214.011 143.958 216.783 145.686 214.293C147.415 211.802 143.494 211.04 140.312 209.163C137.131 207.286 135.785 200.039 135.785 200.039L128.319 200.2Z" fill="black"/>
<path opacity="0.1" d="M144.458 120.13V162.472L136.296 202.901H127.654L128.975 164.147C128.975 164.147 119.973 132.809 123.934 121.087L144.458 120.13Z" fill="black"/>
<path d="M144.097 120.13V162.472L135.936 202.901H127.294L128.614 164.147C128.614 164.147 119.613 132.809 123.573 121.087L144.097 120.13Z" fill="#333333"/>
<path opacity="0.1" d="M139.777 69.8935C139.777 69.8935 132.215 64.9895 127.174 79.582C122.133 94.1745 124.174 121.087 124.174 121.087C124.174 121.087 145.658 128.024 153.339 118.336V103.863C153.339 103.863 157.42 87.3566 151.659 73.0034C151.659 73.0034 146.618 75.0368 139.777 69.8935Z" fill="black"/>
<path opacity="0.1" d="M139.537 70.2523C139.537 70.2523 131.975 65.3483 126.934 79.9408C121.893 94.5333 123.933 121.446 123.933 121.446C123.933 121.446 145.418 128.383 153.099 118.695V104.222C153.099 104.222 157.18 87.7155 151.419 73.3622C151.419 73.3622 146.378 75.3956 139.537 70.2523Z" fill="black"/>
<path d="M139.537 69.8935C139.537 69.8935 131.975 64.9895 126.934 79.582C121.893 94.1745 123.933 121.087 123.933 121.087C123.933 121.087 145.418 128.024 153.099 118.336V103.863C153.099 103.863 157.18 87.3566 151.419 73.0034C151.419 73.0034 146.378 75.0368 139.537 69.8935Z" fill="#008080"/>
<path opacity="0.1" d="M131.855 77.1897C131.855 77.1897 141.217 80.0604 139.417 91.3038C137.616 102.547 138.336 110.441 138.336 110.441L150.339 122.522L146.018 128.383C146.018 128.383 128.975 123.24 126.454 115.704C123.934 108.169 124.174 78.3858 131.855 77.1897Z" fill="black"/>
<path opacity="0.1" d="M131.255 77.5485C131.255 77.5485 140.617 80.4192 138.816 91.6626C137.016 102.906 137.736 110.8 137.736 110.8L149.739 122.881L145.418 128.742C145.418 128.742 128.374 123.599 125.854 116.063C123.333 108.528 123.573 78.7446 131.255 77.5485Z" fill="black"/>
<path d="M131.495 77.1897C131.495 77.1897 140.857 80.0604 139.057 91.3038C137.256 102.547 137.976 110.442 137.976 110.442L149.979 122.522L145.658 128.383C145.658 128.383 128.614 123.24 126.094 115.704C123.573 108.169 123.814 78.3858 131.495 77.1897Z" fill="#008080"/>
<path opacity="0.1" d="M142.597 62.8963L148.238 68.1591C148.146 68.3247 148.062 68.4948 147.987 68.6687C147.169 68.8864 146.325 68.9965 145.478 68.9964C143.323 68.9964 141.448 67.9059 139.837 66.7238C140.963 65.7094 141.929 64.7262 142.597 62.8963Z" fill="black"/>
<path d="M144.038 64.0924C149.407 64.0924 153.759 59.7547 153.759 54.4039C153.759 49.0531 149.407 44.7154 144.038 44.7154C138.668 44.7154 134.316 49.0531 134.316 54.4039C134.316 59.7547 138.668 64.0924 144.038 64.0924Z" fill="#E0E0E0"/>
<path d="M145.658 68.5778C151.027 68.5778 155.38 64.2401 155.38 58.8893C155.38 53.5385 151.027 49.2008 145.658 49.2008C140.289 49.2008 135.936 53.5385 135.936 58.8893C135.936 64.2401 140.289 68.5778 145.658 68.5778Z" fill="#FDA57D"/>
<path d="M135.996 54.4039C135.996 54.4039 132.355 63.9037 140.057 66.8089C140.698 66.4825 141.252 66.0092 141.675 65.428C142.097 64.8467 142.375 64.174 142.486 63.465C142.597 62.756 142.537 62.0309 142.312 61.3491C142.088 60.6674 141.704 60.0485 141.193 59.543L135.996 54.4039Z" fill="#E0E0E0"/>
<path d="M153.524 52.277C153.524 52.277 156.88 53.0882 150.999 55.1215C150.031 55.4452 149.14 55.964 148.382 56.6457C147.623 57.3273 147.014 58.1572 146.592 59.0836C146.328 59.6485 145.952 60.1537 145.485 60.5678C145.018 60.9819 144.47 61.2962 143.877 61.4913C143.283 61.6864 142.656 61.7581 142.033 61.702C141.411 61.6459 140.806 61.4632 140.257 61.1652L138.396 60.1452L135.156 52.6097L138.996 48.1841L145.598 47.3469L153.524 52.277Z" fill="#E0E0E0"/>
<path d="M143.077 63.7335C143.608 63.7335 144.038 62.9838 144.038 62.059C144.038 61.1341 143.608 60.3844 143.077 60.3844C142.547 60.3844 142.117 61.1341 142.117 62.059C142.117 62.9838 142.547 63.7335 143.077 63.7335Z" fill="#FDA57D"/>
<path d="M139.777 69.8935C139.777 69.8935 146.318 80.1202 150.039 80.1202C153.759 80.1202 147.429 70.5307 147.429 70.5307L147.278 73.1828L139.777 69.8935Z" fill="#333333"/>
<path d="M177.457 159.278C155.718 159.278 133.204 157.077 110.151 152.683C48.1539 140.867 14.6529 117.95 12.819 116.966L7.29272 107.807L7.2941 107.808V107.807C7.81144 108.084 51.8363 131.421 112.328 142.903C167.84 153.438 249.066 155.858 320.78 107.552L319.204 118.582C286.208 140.809 255.8 151.931 214.617 157.032C202.288 158.544 189.878 159.293 177.457 159.278V159.278Z" fill="#F55F44"/>
<path d="M16.5737 100.344H9.32275V202.541H16.5737V100.344Z" fill="#E0E0E0"/>
<path d="M6.95778 199.186H18.9385C20.7838 199.186 22.5535 199.916 23.8584 201.217C25.1632 202.517 25.8963 204.281 25.8963 206.12V212.089H0V206.12C9.71795e-07 204.281 0.733051 202.517 2.03789 201.217C3.34272 199.916 5.11246 199.186 6.95778 199.186V199.186Z" fill="#E0E0E0"/>
<path opacity="0.1" d="M12.9481 112.216C16.9527 112.216 20.199 108.981 20.199 104.99C20.199 100.999 16.9527 97.7638 12.9481 97.7638C8.9435 97.7638 5.69714 100.999 5.69714 104.99C5.69714 108.981 8.9435 112.216 12.9481 112.216Z" fill="black"/>
<path d="M12.9481 111.7C16.9527 111.7 20.199 108.464 20.199 104.474C20.199 100.483 16.9527 97.2476 12.9481 97.2476C8.9435 97.2476 5.69714 100.483 5.69714 104.474C5.69714 108.464 8.9435 111.7 12.9481 111.7Z" fill="#E0E0E0"/>
<path opacity="0.1" d="M9.32275 199.699C9.32275 199.699 13.9841 201.245 16.5737 199.699Z" fill="black"/>
<path d="M321.677 100.344H314.427V202.541H321.677V100.344Z" fill="#E0E0E0"/>
<path d="M312.062 199.186H324.042C325.888 199.186 327.657 199.916 328.962 201.217C330.267 202.517 331 204.281 331 206.12V212.089H305.104V206.12C305.104 204.281 305.837 202.517 307.142 201.217C308.446 199.916 310.216 199.186 312.062 199.186V199.186Z" fill="#E0E0E0"/>
<path opacity="0.1" d="M318.052 112.216C322.057 112.216 325.303 108.981 325.303 104.99C325.303 100.999 322.057 97.7638 318.052 97.7638C314.047 97.7638 310.801 100.999 310.801 104.99C310.801 108.981 314.047 112.216 318.052 112.216Z" fill="black"/>
<path d="M318.052 111.7C322.057 111.7 325.303 108.464 325.303 104.474C325.303 100.483 322.057 97.2476 318.052 97.2476C314.047 97.2476 310.801 100.483 310.801 104.474C310.801 108.464 314.047 111.7 318.052 111.7Z" fill="#E0E0E0"/>
<path opacity="0.1" d="M314.427 199.699C314.427 199.699 319.088 201.245 321.677 199.699Z" fill="black"/>
</g>
<defs>
<clipPath id="clip0_2_3">
<rect width="331" height="221" fill="white"/>
</clipPath>
</defs>
</svg>
