<svg width="275" height="243" viewBox="0 0 275 243" fill="none" xmlns="http://www.w3.org/2000/svg">
<g clip-path="url(#clip0_4_144)">
<path d="M142.448 234.185C207.117 234.185 259.541 181.761 259.541 117.092C259.541 52.4241 207.117 0 142.448 0C77.7799 0 25.3558 52.4241 25.3558 117.092C25.3558 181.761 77.7799 234.185 142.448 234.185Z" fill="#F2F2F2"/>
<path d="M66.6567 199.82C59.1142 211.387 61.1808 226.098 61.1808 226.098C61.1808 226.098 75.4764 222.056 83.0189 210.49C90.5615 198.923 88.4948 184.211 88.4948 184.211C88.4948 184.211 74.1993 188.253 66.6567 199.82Z" fill="#3F3D56"/>
<path d="M61.1409 225.964C61.1409 225.964 60.9573 225.935 60.6194 225.866C60.3498 225.812 59.9787 225.733 59.5255 225.626C55.4742 224.671 44.7034 221.442 37.6616 212.953C28.848 202.322 29.2192 187.471 29.2192 187.471C29.2192 187.471 42.6954 189.661 51.5753 199.207C51.9602 199.617 52.3346 200.042 52.6985 200.482C60.3674 209.732 61.0823 222.176 61.139 225.253C61.1468 225.714 61.1409 225.964 61.1409 225.964Z" fill="#008080"/>
<path d="M55.7051 199.82C63.2476 211.387 61.1809 226.098 61.1809 226.098C61.1809 226.098 46.8854 222.056 39.3429 210.49C31.8003 198.923 33.867 184.211 33.867 184.211C33.867 184.211 48.1625 188.253 55.7051 199.82Z" stroke="#3F3D56" stroke-width="2" stroke-miterlimit="10"/>
<path opacity="0.1" d="M61.139 225.253C60.9397 225.493 60.7639 225.698 60.6194 225.866C60.299 226.231 60.1173 226.423 60.1173 226.423C60.1173 226.423 59.8966 226.146 59.5255 225.626C57.4881 222.786 50.9346 212.687 51.4405 201.021C51.4679 200.41 51.5128 199.805 51.5753 199.207C51.9601 199.617 52.3345 200.042 52.6985 200.482C60.3674 209.731 61.0823 222.176 61.139 225.253Z" fill="black"/>
<path d="M72.3227 201.865C71.7265 215.661 61.4856 226.423 61.4856 226.423C61.4856 226.423 52.2112 214.818 52.8074 201.022C53.4035 187.226 63.6445 176.464 63.6445 176.464C63.6445 176.464 72.9189 188.069 72.3227 201.865Z" fill="#008080"/>
<path d="M61.4854 226.032L63.7369 177.026" stroke="#3F3D56" stroke-width="2" stroke-miterlimit="10"/>
<path d="M137.046 242.396C212.735 242.396 274.093 237.387 274.093 231.209C274.093 225.03 212.735 220.021 137.046 220.021C61.3578 220.021 0 225.03 0 231.209C0 237.387 61.3578 242.396 137.046 242.396Z" fill="#3F3D56"/>
<path d="M158.827 96.9825C155.41 98.1364 152.315 100.835 151.615 104.373C151.291 106.013 151.49 107.718 151.217 109.367C150.584 113.192 147.582 116.113 144.812 118.826C142.043 121.54 139.183 124.692 138.981 128.564C138.76 132.804 141.834 136.776 141.302 140.987C140.684 145.881 135.516 149.052 134.238 153.816C133.385 156.997 134.431 160.423 136.151 163.232C139.428 168.584 145.031 172.218 150.997 174.166C156.963 176.114 163.317 176.524 169.593 176.589C177.234 176.669 185.531 176.013 191.272 170.97C194.552 168.064 196.611 164.025 197.038 159.663C197.583 153.821 195.145 147.785 196.827 142.164C197.885 138.627 200.54 135.396 200.144 131.724C199.756 128.135 196.621 125.591 194.471 122.691C192.462 119.983 191.244 116.786 190.05 113.633L185.963 102.848C185.16 100.727 184.278 98.4974 182.488 97.1057C179.137 94.5005 173.748 95.0124 169.829 95.5497C166.194 96.0482 162.323 95.8018 158.827 96.9825Z" fill="#2F2E41"/>
<path d="M160.107 128.401C160.107 128.401 161.918 134.288 148.333 141.081C134.747 147.874 149.691 155.119 149.691 155.119L165.541 158.742C165.541 158.742 181.843 156.478 183.655 153.761C185.466 151.044 188.636 141.987 187.73 140.628C187.053 139.661 186.295 138.752 185.466 137.911C185.466 137.911 174.598 136.1 175.051 131.118C175.503 126.137 160.107 128.401 160.107 128.401Z" fill="#FFB9B9"/>
<path opacity="0.1" d="M160.107 128.401C160.107 128.401 161.918 134.288 148.333 141.081C134.747 147.874 149.691 155.119 149.691 155.119L165.541 158.742C165.541 158.742 181.843 156.478 183.655 153.761C185.466 151.044 188.636 141.987 187.73 140.628C187.053 139.661 186.295 138.752 185.466 137.911C185.466 137.911 174.598 136.1 175.051 131.118C175.503 126.137 160.107 128.401 160.107 128.401Z" fill="black"/>
<path d="M168.938 137.685C176.941 137.685 183.429 131.197 183.429 123.194C183.429 115.19 176.941 108.703 168.938 108.703C160.934 108.703 154.446 115.19 154.446 123.194C154.446 131.197 160.934 137.685 168.938 137.685Z" fill="#FFB9B9"/>
<path d="M167.352 153.761C167.352 153.761 149.901 152.484 149.57 140.443C149.57 140.443 143.352 139.723 141.54 141.534C139.729 143.345 133.842 144.704 133.842 149.232C133.842 153.761 143.804 167.346 143.804 167.346C143.804 167.346 149.239 185.46 146.974 188.63C144.71 191.8 144.257 199.951 144.257 199.951C144.257 199.951 166.9 198.14 170.522 199.951C174.145 201.762 188.636 201.762 189.542 199.951C190.448 198.14 188.636 175.497 188.636 175.497C188.636 175.497 192.712 170.063 191.806 163.723L202.674 151.044C202.674 151.044 198.599 138.817 192.259 138.817C192.259 138.817 183.655 136.553 183.428 137.685C183.202 138.817 187.73 151.497 167.352 153.761Z" fill="#008080"/>
<path d="M126.596 193.611C126.596 193.611 130.672 199.951 141.087 201.309C151.503 202.668 153.314 199.045 152.408 198.14C151.503 197.234 140.635 193.158 140.635 193.158L134.295 188.177L126.596 193.611Z" fill="#FFB9B9"/>
<path d="M200.863 188.177L189.089 194.97C189.089 194.97 173.693 194.064 179.58 198.592C185.467 203.121 196.335 201.309 196.335 201.309L206.75 196.328L200.863 188.177Z" fill="#FFB9B9"/>
<path d="M141.993 199.951C141.993 199.951 131.125 226.669 144.257 230.744C157.39 234.82 193.617 233.914 201.769 228.48C209.92 223.046 212.184 215.801 210.825 213.536C209.467 211.272 200.41 204.932 194.07 204.479C187.73 204.027 141.993 199.951 141.993 199.951Z" fill="#2F2E41"/>
<path opacity="0.05" d="M141.993 199.951C141.993 199.951 131.125 226.669 144.257 230.744C157.39 234.82 193.617 233.914 201.769 228.48C209.92 223.046 212.184 215.801 210.825 213.536C209.467 211.272 200.41 204.932 194.07 204.479C187.73 204.027 141.993 199.951 141.993 199.951Z" fill="black"/>
<path d="M193.295 201.611C193.295 201.611 231.657 187.724 231.204 204.479C230.751 221.235 206.75 225.763 206.75 225.763L199.505 226.669L159.654 228.027C159.654 228.027 161.013 220.782 157.843 219.876C157.843 219.876 168.258 217.159 168.711 216.706C169.164 216.253 194.976 207.196 196.787 206.744C198.599 206.291 204.033 202.668 208.109 203.121C208.109 203.121 212.637 199.498 217.618 200.404L203.58 201.309L193.295 201.611Z" fill="#2F2E41"/>
<path opacity="0.1" d="M193.295 201.611C193.295 201.611 231.657 187.724 231.204 204.479C230.751 221.235 206.75 225.763 206.75 225.763L199.505 226.669L159.654 228.027C159.654 228.027 161.013 220.782 157.843 219.876C157.843 219.876 168.258 217.159 168.711 216.706C169.164 216.253 194.976 207.196 196.787 206.744C198.599 206.291 204.033 202.668 208.109 203.121C208.109 203.121 212.637 199.498 217.618 200.404L203.58 201.309L193.295 201.611Z" fill="black"/>
<path d="M186.517 203.86L191.353 214.895L220.788 204.479L223.052 198.592L215.354 197.234L199.877 199.951L193.165 201.762L186.517 203.86Z" fill="#2F2E41"/>
<path opacity="0.1" d="M186.517 203.86L191.353 214.895L220.788 204.479L223.052 198.592L215.354 197.234L199.877 199.951L193.165 201.762L186.517 203.86Z" fill="black"/>
<path d="M123.879 217.159C123.879 217.159 132.483 228.027 142.446 230.744C152.408 233.461 157.843 229.839 157.843 229.839L154.673 217.159L153.314 209.008L147.427 204.932L135.653 199.498L121.615 194.97C121.615 194.97 115.728 194.064 115.728 194.97C115.728 195.875 121.162 209.461 121.162 209.461L123.879 217.159Z" fill="#2F2E41"/>
<path d="M134.295 223.046C134.295 223.046 136.106 236.179 138.37 237.084C140.635 237.99 147.427 236.179 149.239 235.273C151.05 234.367 157.207 230.189 157.207 230.189C157.207 230.189 135.653 222.14 134.295 223.046Z" fill="#F2F2F2"/>
<path d="M175.504 224.405L184.108 225.763L183.202 236.178L171.201 233.263L175.504 224.405Z" fill="#FFB9B9"/>
<path d="M180.895 227.303C180.895 227.303 176.862 232.103 180.938 234.82L183.655 237.084C183.655 237.084 192.712 238.896 193.618 239.801C194.523 240.707 198.146 238.443 198.146 238.443C198.146 238.443 198.599 224.857 198.146 223.952C197.693 223.046 192.259 222.14 191.806 223.046C191.353 223.952 185.919 225.31 182.749 224.405L180.895 227.303Z" fill="#F2F2F2"/>
<path d="M144.71 203.121C144.71 203.121 113.011 184.554 108.03 191.347C103.048 198.14 97.6142 207.649 112.105 214.895C126.596 222.14 171.881 237.084 171.881 237.084C171.881 237.084 178.674 226.669 178.674 223.952C178.674 223.952 154.673 213.083 150.597 212.178C146.522 211.272 130.219 200.857 127.955 199.951C125.691 199.045 122.521 196.328 122.521 196.328L144.71 203.121Z" fill="#2F2E41"/>
<path d="M135.653 146.968L133.842 148.327C133.842 148.327 129.766 158.742 129.313 164.629C128.861 170.516 123.426 188.63 123.879 190.894C124.332 193.158 124.785 194.97 127.502 197.234C127.502 197.234 131.125 189.083 137.465 190.441L145.163 162.365L135.653 146.968Z" fill="#008080"/>
<path d="M199.052 146.968L202.674 151.044C202.674 151.044 204.939 156.478 204.939 157.836C204.939 159.195 209.467 179.12 209.92 180.026C210.373 180.931 212.184 192.253 209.92 194.97C207.656 197.687 203.58 199.498 203.58 199.498C203.58 199.498 206.297 189.988 197.693 189.536L198.599 185.913L190.448 158.742L199.052 146.968Z" fill="#008080"/>
<path d="M136.559 178.146V201.999C136.559 203.505 137.152 204.951 138.209 206.024C139.266 207.097 140.703 207.711 142.209 207.733L192.093 208.472C193.59 208.494 195.037 207.93 196.124 206.899C197.21 205.869 197.851 204.455 197.908 202.958L198.826 179.102C198.855 178.338 198.732 177.576 198.462 176.861C198.193 176.145 197.783 175.49 197.256 174.936C196.73 174.381 196.098 173.937 195.398 173.63C194.698 173.323 193.943 173.159 193.179 173.148L142.377 172.412C141.617 172.401 140.862 172.541 140.157 172.824C139.452 173.107 138.81 173.528 138.268 174.061C137.727 174.595 137.297 175.231 137.004 175.932C136.71 176.633 136.559 177.386 136.559 178.146Z" fill="#3F3D56"/>
<path d="M169.787 122.729C178.402 122.729 185.386 118.969 185.386 114.33C185.386 109.691 178.402 105.931 169.787 105.931C161.173 105.931 154.189 109.691 154.189 114.33C154.189 118.969 161.173 122.729 169.787 122.729Z" fill="#2F2E41"/>
<path d="M167.126 194.29C169.127 194.29 170.749 192.668 170.749 190.668C170.749 188.667 169.127 187.045 167.126 187.045C165.125 187.045 163.503 188.667 163.503 190.668C163.503 192.668 165.125 194.29 167.126 194.29Z" fill="#F2F2F2"/>
<path d="M265.733 189.933V231.304C265.733 232.015 265.351 232.116 264.729 232.461C262.632 233.624 257.462 235.696 251.256 232.416C250.618 232.08 250.226 231.966 250.226 231.245V190.199C250.226 190.199 258.112 193.379 265.733 189.933Z" fill="#2F2E41"/>
<path d="M257.98 191.552C262.262 191.552 265.733 190.815 265.733 189.906C265.733 188.996 262.262 188.259 257.98 188.259C253.698 188.259 250.226 188.996 250.226 189.906C250.226 190.815 253.698 191.552 257.98 191.552Z" fill="#3F3D56" stroke="#008080" stroke-miterlimit="10"/>
<g opacity="0.8">
<path opacity="0.8" d="M265.027 207.287C265.123 207.287 265.201 207.209 265.201 207.113C265.201 207.017 265.123 206.939 265.027 206.939C264.931 206.939 264.853 207.017 264.853 207.113C264.853 207.209 264.931 207.287 265.027 207.287Z" fill="black"/>
<path opacity="0.8" d="M264.144 207.533C264.24 207.533 264.318 207.456 264.318 207.36C264.318 207.263 264.24 207.186 264.144 207.186C264.048 207.186 263.97 207.263 263.97 207.36C263.97 207.456 264.048 207.533 264.144 207.533Z" fill="black"/>
<path opacity="0.8" d="M263.053 207.881C263.149 207.881 263.227 207.804 263.227 207.707C263.227 207.611 263.149 207.534 263.053 207.534C262.957 207.534 262.879 207.611 262.879 207.707C262.879 207.804 262.957 207.881 263.053 207.881Z" fill="black"/>
<path opacity="0.8" d="M261.096 208.303C261.192 208.303 261.27 208.225 261.27 208.129C261.27 208.033 261.192 207.955 261.096 207.955C261 207.955 260.922 208.033 260.922 208.129C260.922 208.225 261 208.303 261.096 208.303Z" fill="black"/>
<path opacity="0.8" d="M259.034 208.553C259.13 208.553 259.208 208.475 259.208 208.379C259.208 208.283 259.13 208.205 259.034 208.205C258.938 208.205 258.86 208.283 258.86 208.379C258.86 208.475 258.938 208.553 259.034 208.553Z" fill="black"/>
<path opacity="0.8" d="M256.898 208.651C256.994 208.651 257.072 208.573 257.072 208.477C257.072 208.381 256.994 208.303 256.898 208.303C256.802 208.303 256.724 208.381 256.724 208.477C256.724 208.573 256.802 208.651 256.898 208.651Z" fill="black"/>
<path opacity="0.8" d="M253.832 208.229C253.928 208.229 254.006 208.151 254.006 208.055C254.006 207.959 253.928 207.881 253.832 207.881C253.736 207.881 253.658 207.959 253.658 208.055C253.658 208.151 253.736 208.229 253.832 208.229Z" fill="black"/>
<path opacity="0.8" d="M254.848 208.477C254.944 208.477 255.022 208.399 255.022 208.303C255.022 208.207 254.944 208.129 254.848 208.129C254.752 208.129 254.674 208.207 254.674 208.303C254.674 208.399 254.752 208.477 254.848 208.477Z" fill="black"/>
<path opacity="0.8" d="M251.934 207.881C252.03 207.881 252.108 207.804 252.108 207.707C252.108 207.611 252.03 207.534 251.934 207.534C251.838 207.534 251.76 207.611 251.76 207.707C251.76 207.804 251.838 207.881 251.934 207.881Z" fill="black"/>
<path opacity="0.8" d="M252.848 208.055C252.944 208.055 253.022 207.977 253.022 207.881C253.022 207.785 252.944 207.707 252.848 207.707C252.752 207.707 252.674 207.785 252.674 207.881C252.674 207.977 252.752 208.055 252.848 208.055Z" fill="black"/>
<path opacity="0.8" d="M250.932 207.533C251.028 207.533 251.106 207.456 251.106 207.36C251.106 207.263 251.028 207.186 250.932 207.186C250.836 207.186 250.758 207.263 250.758 207.36C250.758 207.456 250.836 207.533 250.932 207.533Z" fill="black"/>
<path opacity="0.8" d="M262.054 208.129C262.15 208.129 262.228 208.051 262.228 207.955C262.228 207.859 262.15 207.781 262.054 207.781C261.958 207.781 261.88 207.859 261.88 207.955C261.88 208.051 261.958 208.129 262.054 208.129Z" fill="black"/>
<path opacity="0.8" d="M260.035 208.477C260.131 208.477 260.209 208.399 260.209 208.303C260.209 208.207 260.131 208.129 260.035 208.129C259.939 208.129 259.861 208.207 259.861 208.303C259.861 208.399 259.939 208.477 260.035 208.477Z" fill="black"/>
<path opacity="0.8" d="M257.845 208.651C257.941 208.651 258.019 208.573 258.019 208.477C258.019 208.381 257.941 208.303 257.845 208.303C257.749 208.303 257.671 208.381 257.671 208.477C257.671 208.573 257.749 208.651 257.845 208.651Z" fill="black"/>
<path opacity="0.8" d="M255.853 208.651C255.949 208.651 256.027 208.573 256.027 208.477C256.027 208.381 255.949 208.303 255.853 208.303C255.757 208.303 255.679 208.381 255.679 208.477C255.679 208.573 255.757 208.651 255.853 208.651Z" fill="black"/>
</g>
<g opacity="0.8">
<path opacity="0.8" d="M265.027 208.143C265.123 208.143 265.201 208.065 265.201 207.969C265.201 207.873 265.123 207.795 265.027 207.795C264.931 207.795 264.853 207.873 264.853 207.969C264.853 208.065 264.931 208.143 265.027 208.143Z" fill="black"/>
<path opacity="0.8" d="M264.144 208.389C264.24 208.389 264.318 208.312 264.318 208.216C264.318 208.119 264.24 208.042 264.144 208.042C264.048 208.042 263.97 208.119 263.97 208.216C263.97 208.312 264.048 208.389 264.144 208.389Z" fill="black"/>
<path opacity="0.8" d="M263.053 208.737C263.149 208.737 263.227 208.659 263.227 208.563C263.227 208.467 263.149 208.389 263.053 208.389C262.957 208.389 262.879 208.467 262.879 208.563C262.879 208.659 262.957 208.737 263.053 208.737Z" fill="black"/>
<path opacity="0.8" d="M261.096 209.159C261.192 209.159 261.27 209.081 261.27 208.985C261.27 208.889 261.192 208.811 261.096 208.811C261 208.811 260.922 208.889 260.922 208.985C260.922 209.081 261 209.159 261.096 209.159Z" fill="black"/>
<path opacity="0.8" d="M259.034 209.409C259.13 209.409 259.208 209.331 259.208 209.235C259.208 209.138 259.13 209.061 259.034 209.061C258.938 209.061 258.86 209.138 258.86 209.235C258.86 209.331 258.938 209.409 259.034 209.409Z" fill="black"/>
<path opacity="0.8" d="M256.898 209.507C256.994 209.507 257.072 209.429 257.072 209.333C257.072 209.237 256.994 209.159 256.898 209.159C256.802 209.159 256.724 209.237 256.724 209.333C256.724 209.429 256.802 209.507 256.898 209.507Z" fill="black"/>
<path opacity="0.8" d="M253.832 209.085C253.928 209.085 254.006 209.007 254.006 208.911C254.006 208.815 253.928 208.737 253.832 208.737C253.736 208.737 253.658 208.815 253.658 208.911C253.658 209.007 253.736 209.085 253.832 209.085Z" fill="black"/>
<path opacity="0.8" d="M254.848 209.333C254.944 209.333 255.022 209.255 255.022 209.159C255.022 209.063 254.944 208.985 254.848 208.985C254.752 208.985 254.674 209.063 254.674 209.159C254.674 209.255 254.752 209.333 254.848 209.333Z" fill="black"/>
<path opacity="0.8" d="M251.934 208.737C252.03 208.737 252.108 208.659 252.108 208.563C252.108 208.467 252.03 208.389 251.934 208.389C251.838 208.389 251.76 208.467 251.76 208.563C251.76 208.659 251.838 208.737 251.934 208.737Z" fill="black"/>
<path opacity="0.8" d="M252.848 208.911C252.944 208.911 253.022 208.833 253.022 208.737C253.022 208.641 252.944 208.563 252.848 208.563C252.752 208.563 252.674 208.641 252.674 208.737C252.674 208.833 252.752 208.911 252.848 208.911Z" fill="black"/>
<path opacity="0.8" d="M250.932 208.389C251.028 208.389 251.106 208.312 251.106 208.216C251.106 208.119 251.028 208.042 250.932 208.042C250.836 208.042 250.758 208.119 250.758 208.216C250.758 208.312 250.836 208.389 250.932 208.389Z" fill="black"/>
<path opacity="0.8" d="M262.054 208.985C262.15 208.985 262.228 208.907 262.228 208.811C262.228 208.715 262.15 208.637 262.054 208.637C261.958 208.637 261.88 208.715 261.88 208.811C261.88 208.907 261.958 208.985 262.054 208.985Z" fill="black"/>
<path opacity="0.8" d="M260.035 209.333C260.131 209.333 260.209 209.255 260.209 209.159C260.209 209.063 260.131 208.985 260.035 208.985C259.939 208.985 259.861 209.063 259.861 209.159C259.861 209.255 259.939 209.333 260.035 209.333Z" fill="black"/>
<path opacity="0.8" d="M257.845 209.507C257.941 209.507 258.019 209.429 258.019 209.333C258.019 209.237 257.941 209.159 257.845 209.159C257.749 209.159 257.671 209.237 257.671 209.333C257.671 209.429 257.749 209.507 257.845 209.507Z" fill="black"/>
<path opacity="0.8" d="M255.853 209.507C255.949 209.507 256.027 209.429 256.027 209.333C256.027 209.237 255.949 209.159 255.853 209.159C255.757 209.159 255.679 209.237 255.679 209.333C255.679 209.429 255.757 209.507 255.853 209.507Z" fill="black"/>
</g>
<g opacity="0.8">
<path opacity="0.8" d="M265.027 208.999C265.123 208.999 265.201 208.921 265.201 208.825C265.201 208.729 265.123 208.651 265.027 208.651C264.931 208.651 264.853 208.729 264.853 208.825C264.853 208.921 264.931 208.999 265.027 208.999Z" fill="black"/>
<path opacity="0.8" d="M264.144 209.246C264.24 209.246 264.318 209.168 264.318 209.072C264.318 208.976 264.24 208.898 264.144 208.898C264.048 208.898 263.97 208.976 263.97 209.072C263.97 209.168 264.048 209.246 264.144 209.246Z" fill="black"/>
<path opacity="0.8" d="M263.053 209.593C263.149 209.593 263.227 209.516 263.227 209.419C263.227 209.323 263.149 209.245 263.053 209.245C262.957 209.245 262.879 209.323 262.879 209.419C262.879 209.516 262.957 209.593 263.053 209.593Z" fill="black"/>
<path opacity="0.8" d="M261.096 210.015C261.192 210.015 261.27 209.937 261.27 209.841C261.27 209.745 261.192 209.667 261.096 209.667C261 209.667 260.922 209.745 260.922 209.841C260.922 209.937 261 210.015 261.096 210.015Z" fill="black"/>
<path opacity="0.8" d="M259.034 210.265C259.13 210.265 259.208 210.187 259.208 210.091C259.208 209.995 259.13 209.917 259.034 209.917C258.938 209.917 258.86 209.995 258.86 210.091C258.86 210.187 258.938 210.265 259.034 210.265Z" fill="black"/>
<path opacity="0.8" d="M256.898 210.363C256.994 210.363 257.072 210.285 257.072 210.189C257.072 210.093 256.994 210.015 256.898 210.015C256.802 210.015 256.724 210.093 256.724 210.189C256.724 210.285 256.802 210.363 256.898 210.363Z" fill="black"/>
<path opacity="0.8" d="M253.832 209.941C253.928 209.941 254.006 209.863 254.006 209.767C254.006 209.671 253.928 209.593 253.832 209.593C253.736 209.593 253.658 209.671 253.658 209.767C253.658 209.863 253.736 209.941 253.832 209.941Z" fill="black"/>
<path opacity="0.8" d="M254.848 210.189C254.944 210.189 255.022 210.111 255.022 210.015C255.022 209.919 254.944 209.841 254.848 209.841C254.752 209.841 254.674 209.919 254.674 210.015C254.674 210.111 254.752 210.189 254.848 210.189Z" fill="black"/>
<path opacity="0.8" d="M251.934 209.593C252.03 209.593 252.108 209.516 252.108 209.419C252.108 209.323 252.03 209.245 251.934 209.245C251.838 209.245 251.76 209.323 251.76 209.419C251.76 209.516 251.838 209.593 251.934 209.593Z" fill="black"/>
<path opacity="0.8" d="M252.848 209.767C252.944 209.767 253.022 209.689 253.022 209.593C253.022 209.497 252.944 209.419 252.848 209.419C252.752 209.419 252.674 209.497 252.674 209.593C252.674 209.689 252.752 209.767 252.848 209.767Z" fill="black"/>
<path opacity="0.8" d="M250.932 209.246C251.028 209.246 251.106 209.168 251.106 209.072C251.106 208.976 251.028 208.898 250.932 208.898C250.836 208.898 250.758 208.976 250.758 209.072C250.758 209.168 250.836 209.246 250.932 209.246Z" fill="black"/>
<path opacity="0.8" d="M262.054 209.841C262.15 209.841 262.228 209.763 262.228 209.667C262.228 209.571 262.15 209.493 262.054 209.493C261.958 209.493 261.88 209.571 261.88 209.667C261.88 209.763 261.958 209.841 262.054 209.841Z" fill="black"/>
<path opacity="0.8" d="M260.035 210.189C260.131 210.189 260.209 210.111 260.209 210.015C260.209 209.919 260.131 209.841 260.035 209.841C259.939 209.841 259.861 209.919 259.861 210.015C259.861 210.111 259.939 210.189 260.035 210.189Z" fill="black"/>
<path opacity="0.8" d="M257.845 210.363C257.941 210.363 258.019 210.285 258.019 210.189C258.019 210.093 257.941 210.015 257.845 210.015C257.749 210.015 257.671 210.093 257.671 210.189C257.671 210.285 257.749 210.363 257.845 210.363Z" fill="black"/>
<path opacity="0.8" d="M255.853 210.363C255.949 210.363 256.027 210.285 256.027 210.189C256.027 210.093 255.949 210.015 255.853 210.015C255.757 210.015 255.679 210.093 255.679 210.189C255.679 210.285 255.757 210.363 255.853 210.363Z" fill="black"/>
</g>
<g opacity="0.8">
<path opacity="0.8" d="M265.027 209.855C265.123 209.855 265.201 209.777 265.201 209.681C265.201 209.585 265.123 209.507 265.027 209.507C264.931 209.507 264.853 209.585 264.853 209.681C264.853 209.777 264.931 209.855 265.027 209.855Z" fill="black"/>
<path opacity="0.8" d="M264.144 210.102C264.24 210.102 264.318 210.024 264.318 209.928C264.318 209.832 264.24 209.754 264.144 209.754C264.048 209.754 263.97 209.832 263.97 209.928C263.97 210.024 264.048 210.102 264.144 210.102Z" fill="black"/>
<path opacity="0.8" d="M263.053 210.449C263.149 210.449 263.227 210.372 263.227 210.276C263.227 210.179 263.149 210.102 263.053 210.102C262.957 210.102 262.879 210.179 262.879 210.276C262.879 210.372 262.957 210.449 263.053 210.449Z" fill="black"/>
<path opacity="0.8" d="M261.096 210.871C261.192 210.871 261.27 210.793 261.27 210.697C261.27 210.601 261.192 210.523 261.096 210.523C261 210.523 260.922 210.601 260.922 210.697C260.922 210.793 261 210.871 261.096 210.871Z" fill="black"/>
<path opacity="0.8" d="M259.034 211.121C259.13 211.121 259.208 211.043 259.208 210.947C259.208 210.851 259.13 210.773 259.034 210.773C258.938 210.773 258.86 210.851 258.86 210.947C258.86 211.043 258.938 211.121 259.034 211.121Z" fill="black"/>
<path opacity="0.8" d="M256.898 211.219C256.994 211.219 257.072 211.141 257.072 211.045C257.072 210.949 256.994 210.871 256.898 210.871C256.802 210.871 256.724 210.949 256.724 211.045C256.724 211.141 256.802 211.219 256.898 211.219Z" fill="black"/>
<path opacity="0.8" d="M253.832 210.797C253.928 210.797 254.006 210.72 254.006 210.623C254.006 210.527 253.928 210.45 253.832 210.45C253.736 210.45 253.658 210.527 253.658 210.623C253.658 210.72 253.736 210.797 253.832 210.797Z" fill="black"/>
<path opacity="0.8" d="M254.848 211.045C254.944 211.045 255.022 210.967 255.022 210.871C255.022 210.775 254.944 210.697 254.848 210.697C254.752 210.697 254.674 210.775 254.674 210.871C254.674 210.967 254.752 211.045 254.848 211.045Z" fill="black"/>
<path opacity="0.8" d="M251.934 210.449C252.03 210.449 252.108 210.372 252.108 210.276C252.108 210.179 252.03 210.102 251.934 210.102C251.838 210.102 251.76 210.179 251.76 210.276C251.76 210.372 251.838 210.449 251.934 210.449Z" fill="black"/>
<path opacity="0.8" d="M252.848 210.624C252.944 210.624 253.022 210.546 253.022 210.45C253.022 210.353 252.944 210.276 252.848 210.276C252.752 210.276 252.674 210.353 252.674 210.45C252.674 210.546 252.752 210.624 252.848 210.624Z" fill="black"/>
<path opacity="0.8" d="M250.932 210.102C251.028 210.102 251.106 210.024 251.106 209.928C251.106 209.832 251.028 209.754 250.932 209.754C250.836 209.754 250.758 209.832 250.758 209.928C250.758 210.024 250.836 210.102 250.932 210.102Z" fill="black"/>
<path opacity="0.8" d="M262.054 210.697C262.15 210.697 262.228 210.619 262.228 210.523C262.228 210.427 262.15 210.349 262.054 210.349C261.958 210.349 261.88 210.427 261.88 210.523C261.88 210.619 261.958 210.697 262.054 210.697Z" fill="black"/>
<path opacity="0.8" d="M260.035 211.045C260.131 211.045 260.209 210.967 260.209 210.871C260.209 210.775 260.131 210.697 260.035 210.697C259.939 210.697 259.861 210.775 259.861 210.871C259.861 210.967 259.939 211.045 260.035 211.045Z" fill="black"/>
<path opacity="0.8" d="M257.845 211.219C257.941 211.219 258.019 211.141 258.019 211.045C258.019 210.949 257.941 210.871 257.845 210.871C257.749 210.871 257.671 210.949 257.671 211.045C257.671 211.141 257.749 211.219 257.845 211.219Z" fill="black"/>
<path opacity="0.8" d="M255.853 211.219C255.949 211.219 256.027 211.141 256.027 211.045C256.027 210.949 255.949 210.871 255.853 210.871C255.757 210.871 255.679 210.949 255.679 211.045C255.679 211.141 255.757 211.219 255.853 211.219Z" fill="black"/>
</g>
<g opacity="0.8">
<path opacity="0.8" d="M265.027 210.711C265.123 210.711 265.201 210.633 265.201 210.537C265.201 210.441 265.123 210.363 265.027 210.363C264.931 210.363 264.853 210.441 264.853 210.537C264.853 210.633 264.931 210.711 265.027 210.711Z" fill="black"/>
<path opacity="0.8" d="M264.144 210.958C264.24 210.958 264.318 210.88 264.318 210.784C264.318 210.688 264.24 210.61 264.144 210.61C264.048 210.61 263.97 210.688 263.97 210.784C263.97 210.88 264.048 210.958 264.144 210.958Z" fill="black"/>
<path opacity="0.8" d="M263.053 211.306C263.149 211.306 263.227 211.228 263.227 211.132C263.227 211.036 263.149 210.958 263.053 210.958C262.957 210.958 262.879 211.036 262.879 211.132C262.879 211.228 262.957 211.306 263.053 211.306Z" fill="black"/>
<path opacity="0.8" d="M261.096 211.727C261.192 211.727 261.27 211.649 261.27 211.553C261.27 211.457 261.192 211.379 261.096 211.379C261 211.379 260.922 211.457 260.922 211.553C260.922 211.649 261 211.727 261.096 211.727Z" fill="black"/>
<path opacity="0.8" d="M259.034 211.977C259.13 211.977 259.208 211.899 259.208 211.803C259.208 211.707 259.13 211.629 259.034 211.629C258.938 211.629 258.86 211.707 258.86 211.803C258.86 211.899 258.938 211.977 259.034 211.977Z" fill="black"/>
<path opacity="0.8" d="M256.898 212.075C256.994 212.075 257.072 211.997 257.072 211.901C257.072 211.805 256.994 211.727 256.898 211.727C256.802 211.727 256.724 211.805 256.724 211.901C256.724 211.997 256.802 212.075 256.898 212.075Z" fill="black"/>
<path opacity="0.8" d="M253.832 211.654C253.928 211.654 254.006 211.576 254.006 211.48C254.006 211.383 253.928 211.306 253.832 211.306C253.736 211.306 253.658 211.383 253.658 211.48C253.658 211.576 253.736 211.654 253.832 211.654Z" fill="black"/>
<path opacity="0.8" d="M254.848 211.901C254.944 211.901 255.022 211.823 255.022 211.727C255.022 211.631 254.944 211.553 254.848 211.553C254.752 211.553 254.674 211.631 254.674 211.727C254.674 211.823 254.752 211.901 254.848 211.901Z" fill="black"/>
<path opacity="0.8" d="M251.934 211.306C252.03 211.306 252.108 211.228 252.108 211.132C252.108 211.036 252.03 210.958 251.934 210.958C251.838 210.958 251.76 211.036 251.76 211.132C251.76 211.228 251.838 211.306 251.934 211.306Z" fill="black"/>
<path opacity="0.8" d="M252.848 211.48C252.944 211.48 253.022 211.402 253.022 211.306C253.022 211.21 252.944 211.132 252.848 211.132C252.752 211.132 252.674 211.21 252.674 211.306C252.674 211.402 252.752 211.48 252.848 211.48Z" fill="black"/>
<path opacity="0.8" d="M250.932 210.958C251.028 210.958 251.106 210.88 251.106 210.784C251.106 210.688 251.028 210.61 250.932 210.61C250.836 210.61 250.758 210.688 250.758 210.784C250.758 210.88 250.836 210.958 250.932 210.958Z" fill="black"/>
<path opacity="0.8" d="M262.054 211.553C262.15 211.553 262.228 211.475 262.228 211.379C262.228 211.283 262.15 211.205 262.054 211.205C261.958 211.205 261.88 211.283 261.88 211.379C261.88 211.475 261.958 211.553 262.054 211.553Z" fill="black"/>
<path opacity="0.8" d="M260.035 211.901C260.131 211.901 260.209 211.823 260.209 211.727C260.209 211.631 260.131 211.553 260.035 211.553C259.939 211.553 259.861 211.631 259.861 211.727C259.861 211.823 259.939 211.901 260.035 211.901Z" fill="black"/>
<path opacity="0.8" d="M257.845 212.075C257.941 212.075 258.019 211.997 258.019 211.901C258.019 211.805 257.941 211.727 257.845 211.727C257.749 211.727 257.671 211.805 257.671 211.901C257.671 211.997 257.749 212.075 257.845 212.075Z" fill="black"/>
<path opacity="0.8" d="M255.853 212.075C255.949 212.075 256.027 211.997 256.027 211.901C256.027 211.805 255.949 211.727 255.853 211.727C255.757 211.727 255.679 211.805 255.679 211.901C255.679 211.997 255.757 212.075 255.853 212.075Z" fill="black"/>
</g>
<g opacity="0.8">
<path opacity="0.8" d="M265.027 211.567C265.123 211.567 265.201 211.489 265.201 211.393C265.201 211.297 265.123 211.219 265.027 211.219C264.931 211.219 264.853 211.297 264.853 211.393C264.853 211.489 264.931 211.567 265.027 211.567Z" fill="black"/>
<path opacity="0.8" d="M264.144 211.814C264.24 211.814 264.318 211.736 264.318 211.64C264.318 211.544 264.24 211.466 264.144 211.466C264.048 211.466 263.97 211.544 263.97 211.64C263.97 211.736 264.048 211.814 264.144 211.814Z" fill="black"/>
<path opacity="0.8" d="M263.053 212.162C263.149 212.162 263.227 212.084 263.227 211.988C263.227 211.892 263.149 211.814 263.053 211.814C262.957 211.814 262.879 211.892 262.879 211.988C262.879 212.084 262.957 212.162 263.053 212.162Z" fill="black"/>
<path opacity="0.8" d="M261.096 212.583C261.192 212.583 261.27 212.505 261.27 212.409C261.27 212.313 261.192 212.235 261.096 212.235C261 212.235 260.922 212.313 260.922 212.409C260.922 212.505 261 212.583 261.096 212.583Z" fill="black"/>
<path opacity="0.8" d="M259.034 212.833C259.13 212.833 259.208 212.755 259.208 212.659C259.208 212.563 259.13 212.485 259.034 212.485C258.938 212.485 258.86 212.563 258.86 212.659C258.86 212.755 258.938 212.833 259.034 212.833Z" fill="black"/>
<path opacity="0.8" d="M256.898 212.931C256.994 212.931 257.072 212.853 257.072 212.757C257.072 212.661 256.994 212.583 256.898 212.583C256.802 212.583 256.724 212.661 256.724 212.757C256.724 212.853 256.802 212.931 256.898 212.931Z" fill="black"/>
<path opacity="0.8" d="M253.832 212.509C253.928 212.509 254.006 212.432 254.006 212.336C254.006 212.239 253.928 212.162 253.832 212.162C253.736 212.162 253.658 212.239 253.658 212.336C253.658 212.432 253.736 212.509 253.832 212.509Z" fill="black"/>
<path opacity="0.8" d="M254.848 212.757C254.944 212.757 255.022 212.679 255.022 212.583C255.022 212.487 254.944 212.409 254.848 212.409C254.752 212.409 254.674 212.487 254.674 212.583C254.674 212.679 254.752 212.757 254.848 212.757Z" fill="black"/>
<path opacity="0.8" d="M251.934 212.162C252.03 212.162 252.108 212.084 252.108 211.988C252.108 211.892 252.03 211.814 251.934 211.814C251.838 211.814 251.76 211.892 251.76 211.988C251.76 212.084 251.838 212.162 251.934 212.162Z" fill="black"/>
<path opacity="0.8" d="M252.848 212.336C252.944 212.336 253.022 212.258 253.022 212.162C253.022 212.065 252.944 211.988 252.848 211.988C252.752 211.988 252.674 212.065 252.674 212.162C252.674 212.258 252.752 212.336 252.848 212.336Z" fill="black"/>
<path opacity="0.8" d="M250.932 211.814C251.028 211.814 251.106 211.736 251.106 211.64C251.106 211.544 251.028 211.466 250.932 211.466C250.836 211.466 250.758 211.544 250.758 211.64C250.758 211.736 250.836 211.814 250.932 211.814Z" fill="black"/>
<path opacity="0.8" d="M262.054 212.409C262.15 212.409 262.228 212.331 262.228 212.235C262.228 212.139 262.15 212.061 262.054 212.061C261.958 212.061 261.88 212.139 261.88 212.235C261.88 212.331 261.958 212.409 262.054 212.409Z" fill="black"/>
<path opacity="0.8" d="M260.035 212.757C260.131 212.757 260.209 212.679 260.209 212.583C260.209 212.487 260.131 212.409 260.035 212.409C259.939 212.409 259.861 212.487 259.861 212.583C259.861 212.679 259.939 212.757 260.035 212.757Z" fill="black"/>
<path opacity="0.8" d="M257.845 212.931C257.941 212.931 258.019 212.853 258.019 212.757C258.019 212.661 257.941 212.583 257.845 212.583C257.749 212.583 257.671 212.661 257.671 212.757C257.671 212.853 257.749 212.931 257.845 212.931Z" fill="black"/>
<path opacity="0.8" d="M255.853 212.931C255.949 212.931 256.027 212.853 256.027 212.757C256.027 212.661 255.949 212.583 255.853 212.583C255.757 212.583 255.679 212.661 255.679 212.757C255.679 212.853 255.757 212.931 255.853 212.931Z" fill="black"/>
</g>
<g opacity="0.8">
<path opacity="0.8" d="M265.027 212.423C265.123 212.423 265.201 212.345 265.201 212.249C265.201 212.153 265.123 212.075 265.027 212.075C264.931 212.075 264.853 212.153 264.853 212.249C264.853 212.345 264.931 212.423 265.027 212.423Z" fill="black"/>
<path opacity="0.8" d="M264.144 212.67C264.24 212.67 264.318 212.592 264.318 212.496C264.318 212.4 264.24 212.322 264.144 212.322C264.048 212.322 263.97 212.4 263.97 212.496C263.97 212.592 264.048 212.67 264.144 212.67Z" fill="black"/>
<path opacity="0.8" d="M263.053 213.018C263.149 213.018 263.227 212.94 263.227 212.844C263.227 212.748 263.149 212.67 263.053 212.67C262.957 212.67 262.879 212.748 262.879 212.844C262.879 212.94 262.957 213.018 263.053 213.018Z" fill="black"/>
<path opacity="0.8" d="M261.096 213.439C261.192 213.439 261.27 213.361 261.27 213.265C261.27 213.169 261.192 213.091 261.096 213.091C261 213.091 260.922 213.169 260.922 213.265C260.922 213.361 261 213.439 261.096 213.439Z" fill="black"/>
<path opacity="0.8" d="M259.034 213.689C259.13 213.689 259.208 213.611 259.208 213.515C259.208 213.419 259.13 213.341 259.034 213.341C258.938 213.341 258.86 213.419 258.86 213.515C258.86 213.611 258.938 213.689 259.034 213.689Z" fill="black"/>
<path opacity="0.8" d="M256.898 213.787C256.994 213.787 257.072 213.709 257.072 213.613C257.072 213.517 256.994 213.439 256.898 213.439C256.802 213.439 256.724 213.517 256.724 213.613C256.724 213.709 256.802 213.787 256.898 213.787Z" fill="black"/>
<path opacity="0.8" d="M253.832 213.366C253.928 213.366 254.006 213.288 254.006 213.192C254.006 213.096 253.928 213.018 253.832 213.018C253.736 213.018 253.658 213.096 253.658 213.192C253.658 213.288 253.736 213.366 253.832 213.366Z" fill="black"/>
<path opacity="0.8" d="M254.848 213.613C254.944 213.613 255.022 213.535 255.022 213.439C255.022 213.343 254.944 213.265 254.848 213.265C254.752 213.265 254.674 213.343 254.674 213.439C254.674 213.535 254.752 213.613 254.848 213.613Z" fill="black"/>
<path opacity="0.8" d="M251.934 213.018C252.03 213.018 252.108 212.94 252.108 212.844C252.108 212.748 252.03 212.67 251.934 212.67C251.838 212.67 251.76 212.748 251.76 212.844C251.76 212.94 251.838 213.018 251.934 213.018Z" fill="black"/>
<path opacity="0.8" d="M252.848 213.192C252.944 213.192 253.022 213.114 253.022 213.018C253.022 212.922 252.944 212.844 252.848 212.844C252.752 212.844 252.674 212.922 252.674 213.018C252.674 213.114 252.752 213.192 252.848 213.192Z" fill="black"/>
<path opacity="0.8" d="M250.932 212.67C251.028 212.67 251.106 212.592 251.106 212.496C251.106 212.4 251.028 212.322 250.932 212.322C250.836 212.322 250.758 212.4 250.758 212.496C250.758 212.592 250.836 212.67 250.932 212.67Z" fill="black"/>
<path opacity="0.8" d="M262.054 213.265C262.15 213.265 262.228 213.187 262.228 213.091C262.228 212.995 262.15 212.917 262.054 212.917C261.958 212.917 261.88 212.995 261.88 213.091C261.88 213.187 261.958 213.265 262.054 213.265Z" fill="black"/>
<path opacity="0.8" d="M260.035 213.613C260.131 213.613 260.209 213.535 260.209 213.439C260.209 213.343 260.131 213.265 260.035 213.265C259.939 213.265 259.861 213.343 259.861 213.439C259.861 213.535 259.939 213.613 260.035 213.613Z" fill="black"/>
<path opacity="0.8" d="M257.845 213.787C257.941 213.787 258.019 213.709 258.019 213.613C258.019 213.517 257.941 213.439 257.845 213.439C257.749 213.439 257.671 213.517 257.671 213.613C257.671 213.709 257.749 213.787 257.845 213.787Z" fill="black"/>
<path opacity="0.8" d="M255.853 213.787C255.949 213.787 256.027 213.709 256.027 213.613C256.027 213.517 255.949 213.439 255.853 213.439C255.757 213.439 255.679 213.517 255.679 213.613C255.679 213.709 255.757 213.787 255.853 213.787Z" fill="black"/>
</g>
<g opacity="0.8">
<path opacity="0.8" d="M265.027 213.279C265.123 213.279 265.201 213.201 265.201 213.105C265.201 213.009 265.123 212.931 265.027 212.931C264.931 212.931 264.853 213.009 264.853 213.105C264.853 213.201 264.931 213.279 265.027 213.279Z" fill="black"/>
<path opacity="0.8" d="M264.144 213.526C264.24 213.526 264.318 213.448 264.318 213.352C264.318 213.256 264.24 213.178 264.144 213.178C264.048 213.178 263.97 213.256 263.97 213.352C263.97 213.448 264.048 213.526 264.144 213.526Z" fill="black"/>
<path opacity="0.8" d="M263.053 213.874C263.149 213.874 263.227 213.796 263.227 213.7C263.227 213.604 263.149 213.526 263.053 213.526C262.957 213.526 262.879 213.604 262.879 213.7C262.879 213.796 262.957 213.874 263.053 213.874Z" fill="black"/>
<path opacity="0.8" d="M261.096 214.295C261.192 214.295 261.27 214.217 261.27 214.121C261.27 214.025 261.192 213.947 261.096 213.947C261 213.947 260.922 214.025 260.922 214.121C260.922 214.217 261 214.295 261.096 214.295Z" fill="black"/>
<path opacity="0.8" d="M259.034 214.545C259.13 214.545 259.208 214.467 259.208 214.371C259.208 214.275 259.13 214.197 259.034 214.197C258.938 214.197 258.86 214.275 258.86 214.371C258.86 214.467 258.938 214.545 259.034 214.545Z" fill="black"/>
<path opacity="0.8" d="M256.898 214.643C256.994 214.643 257.072 214.565 257.072 214.469C257.072 214.373 256.994 214.295 256.898 214.295C256.802 214.295 256.724 214.373 256.724 214.469C256.724 214.565 256.802 214.643 256.898 214.643Z" fill="black"/>
<path opacity="0.8" d="M253.832 214.222C253.928 214.222 254.006 214.144 254.006 214.048C254.006 213.952 253.928 213.874 253.832 213.874C253.736 213.874 253.658 213.952 253.658 214.048C253.658 214.144 253.736 214.222 253.832 214.222Z" fill="black"/>
<path opacity="0.8" d="M254.848 214.469C254.944 214.469 255.022 214.391 255.022 214.295C255.022 214.199 254.944 214.121 254.848 214.121C254.752 214.121 254.674 214.199 254.674 214.295C254.674 214.391 254.752 214.469 254.848 214.469Z" fill="black"/>
<path opacity="0.8" d="M251.934 213.874C252.03 213.874 252.108 213.796 252.108 213.7C252.108 213.604 252.03 213.526 251.934 213.526C251.838 213.526 251.76 213.604 251.76 213.7C251.76 213.796 251.838 213.874 251.934 213.874Z" fill="black"/>
<path opacity="0.8" d="M252.848 214.048C252.944 214.048 253.022 213.97 253.022 213.874C253.022 213.778 252.944 213.7 252.848 213.7C252.752 213.7 252.674 213.778 252.674 213.874C252.674 213.97 252.752 214.048 252.848 214.048Z" fill="black"/>
<path opacity="0.8" d="M250.932 213.526C251.028 213.526 251.106 213.448 251.106 213.352C251.106 213.256 251.028 213.178 250.932 213.178C250.836 213.178 250.758 213.256 250.758 213.352C250.758 213.448 250.836 213.526 250.932 213.526Z" fill="black"/>
<path opacity="0.8" d="M262.054 214.121C262.15 214.121 262.228 214.043 262.228 213.947C262.228 213.851 262.15 213.773 262.054 213.773C261.958 213.773 261.88 213.851 261.88 213.947C261.88 214.043 261.958 214.121 262.054 214.121Z" fill="black"/>
<path opacity="0.8" d="M260.035 214.469C260.131 214.469 260.209 214.391 260.209 214.295C260.209 214.199 260.131 214.121 260.035 214.121C259.939 214.121 259.861 214.199 259.861 214.295C259.861 214.391 259.939 214.469 260.035 214.469Z" fill="black"/>
<path opacity="0.8" d="M257.845 214.643C257.941 214.643 258.019 214.565 258.019 214.469C258.019 214.373 257.941 214.295 257.845 214.295C257.749 214.295 257.671 214.373 257.671 214.469C257.671 214.565 257.749 214.643 257.845 214.643Z" fill="black"/>
<path opacity="0.8" d="M255.853 214.643C255.949 214.643 256.027 214.565 256.027 214.469C256.027 214.373 255.949 214.295 255.853 214.295C255.757 214.295 255.679 214.373 255.679 214.469C255.679 214.565 255.757 214.643 255.853 214.643Z" fill="black"/>
</g>
<g opacity="0.8">
<path opacity="0.8" d="M265.027 214.135C265.123 214.135 265.201 214.057 265.201 213.961C265.201 213.865 265.123 213.787 265.027 213.787C264.931 213.787 264.853 213.865 264.853 213.961C264.853 214.057 264.931 214.135 265.027 214.135Z" fill="black"/>
<path opacity="0.8" d="M264.144 214.382C264.24 214.382 264.318 214.304 264.318 214.208C264.318 214.112 264.24 214.034 264.144 214.034C264.048 214.034 263.97 214.112 263.97 214.208C263.97 214.304 264.048 214.382 264.144 214.382Z" fill="black"/>
<path opacity="0.8" d="M263.053 214.73C263.149 214.73 263.227 214.652 263.227 214.556C263.227 214.46 263.149 214.382 263.053 214.382C262.957 214.382 262.879 214.46 262.879 214.556C262.879 214.652 262.957 214.73 263.053 214.73Z" fill="black"/>
<path opacity="0.8" d="M261.096 215.151C261.192 215.151 261.27 215.073 261.27 214.977C261.27 214.881 261.192 214.803 261.096 214.803C261 214.803 260.922 214.881 260.922 214.977C260.922 215.073 261 215.151 261.096 215.151Z" fill="black"/>
<path opacity="0.8" d="M259.034 215.401C259.13 215.401 259.208 215.323 259.208 215.227C259.208 215.131 259.13 215.053 259.034 215.053C258.938 215.053 258.86 215.131 258.86 215.227C258.86 215.323 258.938 215.401 259.034 215.401Z" fill="black"/>
<path opacity="0.8" d="M256.898 215.499C256.994 215.499 257.072 215.421 257.072 215.325C257.072 215.229 256.994 215.151 256.898 215.151C256.802 215.151 256.724 215.229 256.724 215.325C256.724 215.421 256.802 215.499 256.898 215.499Z" fill="black"/>
<path opacity="0.8" d="M253.832 215.078C253.928 215.078 254.006 215 254.006 214.904C254.006 214.808 253.928 214.73 253.832 214.73C253.736 214.73 253.658 214.808 253.658 214.904C253.658 215 253.736 215.078 253.832 215.078Z" fill="black"/>
<path opacity="0.8" d="M254.848 215.325C254.944 215.325 255.022 215.247 255.022 215.151C255.022 215.055 254.944 214.977 254.848 214.977C254.752 214.977 254.674 215.055 254.674 215.151C254.674 215.247 254.752 215.325 254.848 215.325Z" fill="black"/>
<path opacity="0.8" d="M251.934 214.73C252.03 214.73 252.108 214.652 252.108 214.556C252.108 214.46 252.03 214.382 251.934 214.382C251.838 214.382 251.76 214.46 251.76 214.556C251.76 214.652 251.838 214.73 251.934 214.73Z" fill="black"/>
<path opacity="0.8" d="M252.848 214.904C252.944 214.904 253.022 214.826 253.022 214.73C253.022 214.634 252.944 214.556 252.848 214.556C252.752 214.556 252.674 214.634 252.674 214.73C252.674 214.826 252.752 214.904 252.848 214.904Z" fill="black"/>
<path opacity="0.8" d="M250.932 214.382C251.028 214.382 251.106 214.304 251.106 214.208C251.106 214.112 251.028 214.034 250.932 214.034C250.836 214.034 250.758 214.112 250.758 214.208C250.758 214.304 250.836 214.382 250.932 214.382Z" fill="black"/>
<path opacity="0.8" d="M262.054 214.977C262.15 214.977 262.228 214.899 262.228 214.803C262.228 214.707 262.15 214.629 262.054 214.629C261.958 214.629 261.88 214.707 261.88 214.803C261.88 214.899 261.958 214.977 262.054 214.977Z" fill="black"/>
<path opacity="0.8" d="M260.035 215.325C260.131 215.325 260.209 215.247 260.209 215.151C260.209 215.055 260.131 214.977 260.035 214.977C259.939 214.977 259.861 215.055 259.861 215.151C259.861 215.247 259.939 215.325 260.035 215.325Z" fill="black"/>
<path opacity="0.8" d="M257.845 215.499C257.941 215.499 258.019 215.421 258.019 215.325C258.019 215.229 257.941 215.151 257.845 215.151C257.749 215.151 257.671 215.229 257.671 215.325C257.671 215.421 257.749 215.499 257.845 215.499Z" fill="black"/>
<path opacity="0.8" d="M255.853 215.499C255.949 215.499 256.027 215.421 256.027 215.325C256.027 215.229 255.949 215.151 255.853 215.151C255.757 215.151 255.679 215.229 255.679 215.325C255.679 215.421 255.757 215.499 255.853 215.499Z" fill="black"/>
</g>
<g opacity="0.8">
<path opacity="0.8" d="M265.027 214.991C265.123 214.991 265.201 214.913 265.201 214.817C265.201 214.721 265.123 214.643 265.027 214.643C264.931 214.643 264.853 214.721 264.853 214.817C264.853 214.913 264.931 214.991 265.027 214.991Z" fill="black"/>
<path opacity="0.8" d="M264.144 215.238C264.24 215.238 264.318 215.16 264.318 215.064C264.318 214.968 264.24 214.89 264.144 214.89C264.048 214.89 263.97 214.968 263.97 215.064C263.97 215.16 264.048 215.238 264.144 215.238Z" fill="black"/>
<path opacity="0.8" d="M263.053 215.586C263.149 215.586 263.227 215.508 263.227 215.412C263.227 215.316 263.149 215.238 263.053 215.238C262.957 215.238 262.879 215.316 262.879 215.412C262.879 215.508 262.957 215.586 263.053 215.586Z" fill="black"/>
<path opacity="0.8" d="M261.096 216.007C261.192 216.007 261.27 215.929 261.27 215.833C261.27 215.737 261.192 215.659 261.096 215.659C261 215.659 260.922 215.737 260.922 215.833C260.922 215.929 261 216.007 261.096 216.007Z" fill="black"/>
<path opacity="0.8" d="M259.034 216.257C259.13 216.257 259.208 216.179 259.208 216.083C259.208 215.987 259.13 215.909 259.034 215.909C258.938 215.909 258.86 215.987 258.86 216.083C258.86 216.179 258.938 216.257 259.034 216.257Z" fill="black"/>
<path opacity="0.8" d="M256.898 216.355C256.994 216.355 257.072 216.277 257.072 216.181C257.072 216.085 256.994 216.007 256.898 216.007C256.802 216.007 256.724 216.085 256.724 216.181C256.724 216.277 256.802 216.355 256.898 216.355Z" fill="black"/>
<path opacity="0.8" d="M253.832 215.934C253.928 215.934 254.006 215.856 254.006 215.76C254.006 215.664 253.928 215.586 253.832 215.586C253.736 215.586 253.658 215.664 253.658 215.76C253.658 215.856 253.736 215.934 253.832 215.934Z" fill="black"/>
<path opacity="0.8" d="M254.848 216.181C254.944 216.181 255.022 216.103 255.022 216.007C255.022 215.911 254.944 215.833 254.848 215.833C254.752 215.833 254.674 215.911 254.674 216.007C254.674 216.103 254.752 216.181 254.848 216.181Z" fill="black"/>
<path opacity="0.8" d="M251.934 215.586C252.03 215.586 252.108 215.508 252.108 215.412C252.108 215.316 252.03 215.238 251.934 215.238C251.838 215.238 251.76 215.316 251.76 215.412C251.76 215.508 251.838 215.586 251.934 215.586Z" fill="black"/>
<path opacity="0.8" d="M252.848 215.76C252.944 215.76 253.022 215.682 253.022 215.586C253.022 215.49 252.944 215.412 252.848 215.412C252.752 215.412 252.674 215.49 252.674 215.586C252.674 215.682 252.752 215.76 252.848 215.76Z" fill="black"/>
<path opacity="0.8" d="M250.932 215.238C251.028 215.238 251.106 215.16 251.106 215.064C251.106 214.968 251.028 214.89 250.932 214.89C250.836 214.89 250.758 214.968 250.758 215.064C250.758 215.16 250.836 215.238 250.932 215.238Z" fill="black"/>
<path opacity="0.8" d="M262.054 215.833C262.15 215.833 262.228 215.755 262.228 215.659C262.228 215.563 262.15 215.485 262.054 215.485C261.958 215.485 261.88 215.563 261.88 215.659C261.88 215.755 261.958 215.833 262.054 215.833Z" fill="black"/>
<path opacity="0.8" d="M260.035 216.181C260.131 216.181 260.209 216.103 260.209 216.007C260.209 215.911 260.131 215.833 260.035 215.833C259.939 215.833 259.861 215.911 259.861 216.007C259.861 216.103 259.939 216.181 260.035 216.181Z" fill="black"/>
<path opacity="0.8" d="M257.845 216.355C257.941 216.355 258.019 216.277 258.019 216.181C258.019 216.085 257.941 216.007 257.845 216.007C257.749 216.007 257.671 216.085 257.671 216.181C257.671 216.277 257.749 216.355 257.845 216.355Z" fill="black"/>
<path opacity="0.8" d="M255.853 216.355C255.949 216.355 256.027 216.277 256.027 216.181C256.027 216.085 255.949 216.007 255.853 216.007C255.757 216.007 255.679 216.085 255.679 216.181C255.679 216.277 255.757 216.355 255.853 216.355Z" fill="black"/>
</g>
<g opacity="0.8">
<path opacity="0.8" d="M265.027 215.847C265.123 215.847 265.201 215.769 265.201 215.673C265.201 215.577 265.123 215.499 265.027 215.499C264.931 215.499 264.853 215.577 264.853 215.673C264.853 215.769 264.931 215.847 265.027 215.847Z" fill="black"/>
<path opacity="0.8" d="M264.144 216.094C264.24 216.094 264.318 216.016 264.318 215.92C264.318 215.824 264.24 215.746 264.144 215.746C264.048 215.746 263.97 215.824 263.97 215.92C263.97 216.016 264.048 216.094 264.144 216.094Z" fill="black"/>
<path opacity="0.8" d="M263.053 216.442C263.149 216.442 263.227 216.364 263.227 216.268C263.227 216.172 263.149 216.094 263.053 216.094C262.957 216.094 262.879 216.172 262.879 216.268C262.879 216.364 262.957 216.442 263.053 216.442Z" fill="black"/>
<path opacity="0.8" d="M261.096 216.863C261.192 216.863 261.27 216.785 261.27 216.689C261.27 216.593 261.192 216.515 261.096 216.515C261 216.515 260.922 216.593 260.922 216.689C260.922 216.785 261 216.863 261.096 216.863Z" fill="black"/>
<path opacity="0.8" d="M259.034 217.113C259.13 217.113 259.208 217.035 259.208 216.939C259.208 216.843 259.13 216.765 259.034 216.765C258.938 216.765 258.86 216.843 258.86 216.939C258.86 217.035 258.938 217.113 259.034 217.113Z" fill="black"/>
<path opacity="0.8" d="M256.898 217.211C256.994 217.211 257.072 217.133 257.072 217.037C257.072 216.941 256.994 216.863 256.898 216.863C256.802 216.863 256.724 216.941 256.724 217.037C256.724 217.133 256.802 217.211 256.898 217.211Z" fill="black"/>
<path opacity="0.8" d="M253.832 216.79C253.928 216.79 254.006 216.712 254.006 216.616C254.006 216.52 253.928 216.442 253.832 216.442C253.736 216.442 253.658 216.52 253.658 216.616C253.658 216.712 253.736 216.79 253.832 216.79Z" fill="black"/>
<path opacity="0.8" d="M254.848 217.037C254.944 217.037 255.022 216.959 255.022 216.863C255.022 216.767 254.944 216.689 254.848 216.689C254.752 216.689 254.674 216.767 254.674 216.863C254.674 216.959 254.752 217.037 254.848 217.037Z" fill="black"/>
<path opacity="0.8" d="M251.934 216.442C252.03 216.442 252.108 216.364 252.108 216.268C252.108 216.172 252.03 216.094 251.934 216.094C251.838 216.094 251.76 216.172 251.76 216.268C251.76 216.364 251.838 216.442 251.934 216.442Z" fill="black"/>
<path opacity="0.8" d="M252.848 216.616C252.944 216.616 253.022 216.538 253.022 216.442C253.022 216.346 252.944 216.268 252.848 216.268C252.752 216.268 252.674 216.346 252.674 216.442C252.674 216.538 252.752 216.616 252.848 216.616Z" fill="black"/>
<path opacity="0.8" d="M250.932 216.094C251.028 216.094 251.106 216.016 251.106 215.92C251.106 215.824 251.028 215.746 250.932 215.746C250.836 215.746 250.758 215.824 250.758 215.92C250.758 216.016 250.836 216.094 250.932 216.094Z" fill="black"/>
<path opacity="0.8" d="M262.054 216.689C262.15 216.689 262.228 216.611 262.228 216.515C262.228 216.419 262.15 216.341 262.054 216.341C261.958 216.341 261.88 216.419 261.88 216.515C261.88 216.611 261.958 216.689 262.054 216.689Z" fill="black"/>
<path opacity="0.8" d="M260.035 217.037C260.131 217.037 260.209 216.959 260.209 216.863C260.209 216.767 260.131 216.689 260.035 216.689C259.939 216.689 259.861 216.767 259.861 216.863C259.861 216.959 259.939 217.037 260.035 217.037Z" fill="black"/>
<path opacity="0.8" d="M257.845 217.211C257.941 217.211 258.019 217.133 258.019 217.037C258.019 216.941 257.941 216.863 257.845 216.863C257.749 216.863 257.671 216.941 257.671 217.037C257.671 217.133 257.749 217.211 257.845 217.211Z" fill="black"/>
<path opacity="0.8" d="M255.853 217.211C255.949 217.211 256.027 217.133 256.027 217.037C256.027 216.941 255.949 216.863 255.853 216.863C255.757 216.863 255.679 216.941 255.679 217.037C255.679 217.133 255.757 217.211 255.853 217.211Z" fill="black"/>
</g>
<g opacity="0.8">
<path opacity="0.8" d="M265.027 216.703C265.123 216.703 265.201 216.625 265.201 216.529C265.201 216.433 265.123 216.355 265.027 216.355C264.931 216.355 264.853 216.433 264.853 216.529C264.853 216.625 264.931 216.703 265.027 216.703Z" fill="black"/>
<path opacity="0.8" d="M264.144 216.95C264.24 216.95 264.318 216.872 264.318 216.776C264.318 216.68 264.24 216.602 264.144 216.602C264.048 216.602 263.97 216.68 263.97 216.776C263.97 216.872 264.048 216.95 264.144 216.95Z" fill="black"/>
<path opacity="0.8" d="M263.053 217.298C263.149 217.298 263.227 217.22 263.227 217.124C263.227 217.028 263.149 216.95 263.053 216.95C262.957 216.95 262.879 217.028 262.879 217.124C262.879 217.22 262.957 217.298 263.053 217.298Z" fill="black"/>
<path opacity="0.8" d="M261.096 217.719C261.192 217.719 261.27 217.642 261.27 217.545C261.27 217.449 261.192 217.372 261.096 217.372C261 217.372 260.922 217.449 260.922 217.545C260.922 217.642 261 217.719 261.096 217.719Z" fill="black"/>
<path opacity="0.8" d="M259.034 217.969C259.13 217.969 259.208 217.891 259.208 217.795C259.208 217.699 259.13 217.621 259.034 217.621C258.938 217.621 258.86 217.699 258.86 217.795C258.86 217.891 258.938 217.969 259.034 217.969Z" fill="black"/>
<path opacity="0.8" d="M256.898 218.067C256.994 218.067 257.072 217.989 257.072 217.893C257.072 217.797 256.994 217.719 256.898 217.719C256.802 217.719 256.724 217.797 256.724 217.893C256.724 217.989 256.802 218.067 256.898 218.067Z" fill="black"/>
<path opacity="0.8" d="M253.832 217.646C253.928 217.646 254.006 217.568 254.006 217.472C254.006 217.376 253.928 217.298 253.832 217.298C253.736 217.298 253.658 217.376 253.658 217.472C253.658 217.568 253.736 217.646 253.832 217.646Z" fill="black"/>
<path opacity="0.8" d="M254.848 217.893C254.944 217.893 255.022 217.815 255.022 217.719C255.022 217.623 254.944 217.545 254.848 217.545C254.752 217.545 254.674 217.623 254.674 217.719C254.674 217.815 254.752 217.893 254.848 217.893Z" fill="black"/>
<path opacity="0.8" d="M251.934 217.298C252.03 217.298 252.108 217.22 252.108 217.124C252.108 217.028 252.03 216.95 251.934 216.95C251.838 216.95 251.76 217.028 251.76 217.124C251.76 217.22 251.838 217.298 251.934 217.298Z" fill="black"/>
<path opacity="0.8" d="M252.848 217.472C252.944 217.472 253.022 217.394 253.022 217.298C253.022 217.202 252.944 217.124 252.848 217.124C252.752 217.124 252.674 217.202 252.674 217.298C252.674 217.394 252.752 217.472 252.848 217.472Z" fill="black"/>
<path opacity="0.8" d="M250.932 216.95C251.028 216.95 251.106 216.872 251.106 216.776C251.106 216.68 251.028 216.602 250.932 216.602C250.836 216.602 250.758 216.68 250.758 216.776C250.758 216.872 250.836 216.95 250.932 216.95Z" fill="black"/>
<path opacity="0.8" d="M262.054 217.545C262.15 217.545 262.228 217.468 262.228 217.372C262.228 217.275 262.15 217.198 262.054 217.198C261.958 217.198 261.88 217.275 261.88 217.372C261.88 217.468 261.958 217.545 262.054 217.545Z" fill="black"/>
<path opacity="0.8" d="M260.035 217.893C260.131 217.893 260.209 217.815 260.209 217.719C260.209 217.623 260.131 217.545 260.035 217.545C259.939 217.545 259.861 217.623 259.861 217.719C259.861 217.815 259.939 217.893 260.035 217.893Z" fill="black"/>
<path opacity="0.8" d="M257.845 218.067C257.941 218.067 258.019 217.989 258.019 217.893C258.019 217.797 257.941 217.719 257.845 217.719C257.749 217.719 257.671 217.797 257.671 217.893C257.671 217.989 257.749 218.067 257.845 218.067Z" fill="black"/>
<path opacity="0.8" d="M255.853 218.067C255.949 218.067 256.027 217.989 256.027 217.893C256.027 217.797 255.949 217.719 255.853 217.719C255.757 217.719 255.679 217.797 255.679 217.893C255.679 217.989 255.757 218.067 255.853 218.067Z" fill="black"/>
</g>
<g opacity="0.8">
<path opacity="0.8" d="M265.027 217.559C265.123 217.559 265.201 217.481 265.201 217.385C265.201 217.289 265.123 217.211 265.027 217.211C264.931 217.211 264.853 217.289 264.853 217.385C264.853 217.481 264.931 217.559 265.027 217.559Z" fill="black"/>
<path opacity="0.8" d="M264.144 217.806C264.24 217.806 264.318 217.728 264.318 217.632C264.318 217.536 264.24 217.458 264.144 217.458C264.048 217.458 263.97 217.536 263.97 217.632C263.97 217.728 264.048 217.806 264.144 217.806Z" fill="black"/>
<path opacity="0.8" d="M263.053 218.154C263.149 218.154 263.227 218.076 263.227 217.98C263.227 217.884 263.149 217.806 263.053 217.806C262.957 217.806 262.879 217.884 262.879 217.98C262.879 218.076 262.957 218.154 263.053 218.154Z" fill="black"/>
<path opacity="0.8" d="M261.096 218.575C261.192 218.575 261.27 218.498 261.27 218.401C261.27 218.305 261.192 218.227 261.096 218.227C261 218.227 260.922 218.305 260.922 218.401C260.922 218.498 261 218.575 261.096 218.575Z" fill="black"/>
<path opacity="0.8" d="M259.034 218.825C259.13 218.825 259.208 218.747 259.208 218.651C259.208 218.555 259.13 218.477 259.034 218.477C258.938 218.477 258.86 218.555 258.86 218.651C258.86 218.747 258.938 218.825 259.034 218.825Z" fill="black"/>
<path opacity="0.8" d="M256.898 218.923C256.994 218.923 257.072 218.845 257.072 218.749C257.072 218.653 256.994 218.575 256.898 218.575C256.802 218.575 256.724 218.653 256.724 218.749C256.724 218.845 256.802 218.923 256.898 218.923Z" fill="black"/>
<path opacity="0.8" d="M253.832 218.502C253.928 218.502 254.006 218.424 254.006 218.328C254.006 218.232 253.928 218.154 253.832 218.154C253.736 218.154 253.658 218.232 253.658 218.328C253.658 218.424 253.736 218.502 253.832 218.502Z" fill="black"/>
<path opacity="0.8" d="M254.848 218.749C254.944 218.749 255.022 218.671 255.022 218.575C255.022 218.479 254.944 218.401 254.848 218.401C254.752 218.401 254.674 218.479 254.674 218.575C254.674 218.671 254.752 218.749 254.848 218.749Z" fill="black"/>
<path opacity="0.8" d="M251.934 218.154C252.03 218.154 252.108 218.076 252.108 217.98C252.108 217.884 252.03 217.806 251.934 217.806C251.838 217.806 251.76 217.884 251.76 217.98C251.76 218.076 251.838 218.154 251.934 218.154Z" fill="black"/>
<path opacity="0.8" d="M252.848 218.328C252.944 218.328 253.022 218.25 253.022 218.154C253.022 218.058 252.944 217.98 252.848 217.98C252.752 217.98 252.674 218.058 252.674 218.154C252.674 218.25 252.752 218.328 252.848 218.328Z" fill="black"/>
<path opacity="0.8" d="M250.932 217.806C251.028 217.806 251.106 217.728 251.106 217.632C251.106 217.536 251.028 217.458 250.932 217.458C250.836 217.458 250.758 217.536 250.758 217.632C250.758 217.728 250.836 217.806 250.932 217.806Z" fill="black"/>
<path opacity="0.8" d="M262.054 218.401C262.15 218.401 262.228 218.324 262.228 218.227C262.228 218.131 262.15 218.054 262.054 218.054C261.958 218.054 261.88 218.131 261.88 218.227C261.88 218.324 261.958 218.401 262.054 218.401Z" fill="black"/>
<path opacity="0.8" d="M260.035 218.749C260.131 218.749 260.209 218.671 260.209 218.575C260.209 218.479 260.131 218.401 260.035 218.401C259.939 218.401 259.861 218.479 259.861 218.575C259.861 218.671 259.939 218.749 260.035 218.749Z" fill="black"/>
<path opacity="0.8" d="M257.845 218.923C257.941 218.923 258.019 218.845 258.019 218.749C258.019 218.653 257.941 218.575 257.845 218.575C257.749 218.575 257.671 218.653 257.671 218.749C257.671 218.845 257.749 218.923 257.845 218.923Z" fill="black"/>
<path opacity="0.8" d="M255.853 218.923C255.949 218.923 256.027 218.845 256.027 218.749C256.027 218.653 255.949 218.575 255.853 218.575C255.757 218.575 255.679 218.653 255.679 218.749C255.679 218.845 255.757 218.923 255.853 218.923Z" fill="black"/>
</g>
<g opacity="0.8">
<path opacity="0.8" d="M265.027 218.415C265.123 218.415 265.201 218.337 265.201 218.241C265.201 218.145 265.123 218.067 265.027 218.067C264.931 218.067 264.853 218.145 264.853 218.241C264.853 218.337 264.931 218.415 265.027 218.415Z" fill="black"/>
<path opacity="0.8" d="M264.144 218.662C264.24 218.662 264.318 218.584 264.318 218.488C264.318 218.392 264.24 218.314 264.144 218.314C264.048 218.314 263.97 218.392 263.97 218.488C263.97 218.584 264.048 218.662 264.144 218.662Z" fill="black"/>
<path opacity="0.8" d="M263.053 219.01C263.149 219.01 263.227 218.932 263.227 218.836C263.227 218.74 263.149 218.662 263.053 218.662C262.957 218.662 262.879 218.74 262.879 218.836C262.879 218.932 262.957 219.01 263.053 219.01Z" fill="black"/>
<path opacity="0.8" d="M261.096 219.431C261.192 219.431 261.27 219.354 261.27 219.258C261.27 219.161 261.192 219.084 261.096 219.084C261 219.084 260.922 219.161 260.922 219.258C260.922 219.354 261 219.431 261.096 219.431Z" fill="black"/>
<path opacity="0.8" d="M259.034 219.681C259.13 219.681 259.208 219.603 259.208 219.507C259.208 219.411 259.13 219.333 259.034 219.333C258.938 219.333 258.86 219.411 258.86 219.507C258.86 219.603 258.938 219.681 259.034 219.681Z" fill="black"/>
<path opacity="0.8" d="M256.898 219.779C256.994 219.779 257.072 219.702 257.072 219.605C257.072 219.509 256.994 219.432 256.898 219.432C256.802 219.432 256.724 219.509 256.724 219.605C256.724 219.702 256.802 219.779 256.898 219.779Z" fill="black"/>
<path opacity="0.8" d="M253.832 219.358C253.928 219.358 254.006 219.28 254.006 219.184C254.006 219.088 253.928 219.01 253.832 219.01C253.736 219.01 253.658 219.088 253.658 219.184C253.658 219.28 253.736 219.358 253.832 219.358Z" fill="black"/>
<path opacity="0.8" d="M254.848 219.605C254.944 219.605 255.022 219.527 255.022 219.431C255.022 219.335 254.944 219.257 254.848 219.257C254.752 219.257 254.674 219.335 254.674 219.431C254.674 219.527 254.752 219.605 254.848 219.605Z" fill="black"/>
<path opacity="0.8" d="M251.934 219.01C252.03 219.01 252.108 218.932 252.108 218.836C252.108 218.74 252.03 218.662 251.934 218.662C251.838 218.662 251.76 218.74 251.76 218.836C251.76 218.932 251.838 219.01 251.934 219.01Z" fill="black"/>
<path opacity="0.8" d="M252.848 219.184C252.944 219.184 253.022 219.106 253.022 219.01C253.022 218.914 252.944 218.836 252.848 218.836C252.752 218.836 252.674 218.914 252.674 219.01C252.674 219.106 252.752 219.184 252.848 219.184Z" fill="black"/>
<path opacity="0.8" d="M250.932 218.662C251.028 218.662 251.106 218.584 251.106 218.488C251.106 218.392 251.028 218.314 250.932 218.314C250.836 218.314 250.758 218.392 250.758 218.488C250.758 218.584 250.836 218.662 250.932 218.662Z" fill="black"/>
<path opacity="0.8" d="M262.054 219.257C262.15 219.257 262.228 219.18 262.228 219.083C262.228 218.987 262.15 218.91 262.054 218.91C261.958 218.91 261.88 218.987 261.88 219.083C261.88 219.18 261.958 219.257 262.054 219.257Z" fill="black"/>
<path opacity="0.8" d="M260.035 219.605C260.131 219.605 260.209 219.527 260.209 219.431C260.209 219.335 260.131 219.257 260.035 219.257C259.939 219.257 259.861 219.335 259.861 219.431C259.861 219.527 259.939 219.605 260.035 219.605Z" fill="black"/>
<path opacity="0.8" d="M257.845 219.779C257.941 219.779 258.019 219.702 258.019 219.605C258.019 219.509 257.941 219.432 257.845 219.432C257.749 219.432 257.671 219.509 257.671 219.605C257.671 219.702 257.749 219.779 257.845 219.779Z" fill="black"/>
<path opacity="0.8" d="M255.853 219.779C255.949 219.779 256.027 219.702 256.027 219.605C256.027 219.509 255.949 219.432 255.853 219.432C255.757 219.432 255.679 219.509 255.679 219.605C255.679 219.702 255.757 219.779 255.853 219.779Z" fill="black"/>
</g>
<g opacity="0.8">
<path opacity="0.8" d="M265.027 219.271C265.123 219.271 265.201 219.193 265.201 219.097C265.201 219.001 265.123 218.923 265.027 218.923C264.931 218.923 264.853 219.001 264.853 219.097C264.853 219.193 264.931 219.271 265.027 219.271Z" fill="black"/>
<path opacity="0.8" d="M264.144 219.518C264.24 219.518 264.318 219.44 264.318 219.344C264.318 219.248 264.24 219.17 264.144 219.17C264.048 219.17 263.97 219.248 263.97 219.344C263.97 219.44 264.048 219.518 264.144 219.518Z" fill="black"/>
<path opacity="0.8" d="M263.053 219.866C263.149 219.866 263.227 219.788 263.227 219.692C263.227 219.596 263.149 219.518 263.053 219.518C262.957 219.518 262.879 219.596 262.879 219.692C262.879 219.788 262.957 219.866 263.053 219.866Z" fill="black"/>
<path opacity="0.8" d="M261.096 220.288C261.192 220.288 261.27 220.21 261.27 220.114C261.27 220.018 261.192 219.94 261.096 219.94C261 219.94 260.922 220.018 260.922 220.114C260.922 220.21 261 220.288 261.096 220.288Z" fill="black"/>
<path opacity="0.8" d="M259.034 220.537C259.13 220.537 259.208 220.459 259.208 220.363C259.208 220.267 259.13 220.189 259.034 220.189C258.938 220.189 258.86 220.267 258.86 220.363C258.86 220.459 258.938 220.537 259.034 220.537Z" fill="black"/>
<path opacity="0.8" d="M256.898 220.635C256.994 220.635 257.072 220.558 257.072 220.462C257.072 220.365 256.994 220.288 256.898 220.288C256.802 220.288 256.724 220.365 256.724 220.462C256.724 220.558 256.802 220.635 256.898 220.635Z" fill="black"/>
<path opacity="0.8" d="M253.832 220.214C253.928 220.214 254.006 220.136 254.006 220.04C254.006 219.944 253.928 219.866 253.832 219.866C253.736 219.866 253.658 219.944 253.658 220.04C253.658 220.136 253.736 220.214 253.832 220.214Z" fill="black"/>
<path opacity="0.8" d="M254.848 220.461C254.944 220.461 255.022 220.384 255.022 220.288C255.022 220.191 254.944 220.114 254.848 220.114C254.752 220.114 254.674 220.191 254.674 220.288C254.674 220.384 254.752 220.461 254.848 220.461Z" fill="black"/>
<path opacity="0.8" d="M251.934 219.866C252.03 219.866 252.108 219.788 252.108 219.692C252.108 219.596 252.03 219.518 251.934 219.518C251.838 219.518 251.76 219.596 251.76 219.692C251.76 219.788 251.838 219.866 251.934 219.866Z" fill="black"/>
<path opacity="0.8" d="M252.848 220.04C252.944 220.04 253.022 219.962 253.022 219.866C253.022 219.77 252.944 219.692 252.848 219.692C252.752 219.692 252.674 219.77 252.674 219.866C252.674 219.962 252.752 220.04 252.848 220.04Z" fill="black"/>
<path opacity="0.8" d="M250.932 219.518C251.028 219.518 251.106 219.44 251.106 219.344C251.106 219.248 251.028 219.17 250.932 219.17C250.836 219.17 250.758 219.248 250.758 219.344C250.758 219.44 250.836 219.518 250.932 219.518Z" fill="black"/>
<path opacity="0.8" d="M262.054 220.114C262.15 220.114 262.228 220.036 262.228 219.94C262.228 219.844 262.15 219.766 262.054 219.766C261.958 219.766 261.88 219.844 261.88 219.94C261.88 220.036 261.958 220.114 262.054 220.114Z" fill="black"/>
<path opacity="0.8" d="M260.035 220.461C260.131 220.461 260.209 220.384 260.209 220.288C260.209 220.191 260.131 220.114 260.035 220.114C259.939 220.114 259.861 220.191 259.861 220.288C259.861 220.384 259.939 220.461 260.035 220.461Z" fill="black"/>
<path opacity="0.8" d="M257.845 220.635C257.941 220.635 258.019 220.558 258.019 220.462C258.019 220.365 257.941 220.288 257.845 220.288C257.749 220.288 257.671 220.365 257.671 220.462C257.671 220.558 257.749 220.635 257.845 220.635Z" fill="black"/>
<path opacity="0.8" d="M255.853 220.635C255.949 220.635 256.027 220.558 256.027 220.462C256.027 220.365 255.949 220.288 255.853 220.288C255.757 220.288 255.679 220.365 255.679 220.462C255.679 220.558 255.757 220.635 255.853 220.635Z" fill="black"/>
</g>
<g opacity="0.8">
<path opacity="0.8" d="M265.027 220.127C265.123 220.127 265.201 220.049 265.201 219.953C265.201 219.857 265.123 219.779 265.027 219.779C264.931 219.779 264.853 219.857 264.853 219.953C264.853 220.049 264.931 220.127 265.027 220.127Z" fill="black"/>
<path opacity="0.8" d="M264.144 220.374C264.24 220.374 264.318 220.296 264.318 220.2C264.318 220.104 264.24 220.026 264.144 220.026C264.048 220.026 263.97 220.104 263.97 220.2C263.97 220.296 264.048 220.374 264.144 220.374Z" fill="black"/>
<path opacity="0.8" d="M263.053 220.722C263.149 220.722 263.227 220.644 263.227 220.548C263.227 220.452 263.149 220.374 263.053 220.374C262.957 220.374 262.879 220.452 262.879 220.548C262.879 220.644 262.957 220.722 263.053 220.722Z" fill="black"/>
<path opacity="0.8" d="M261.096 221.144C261.192 221.144 261.27 221.066 261.27 220.97C261.27 220.874 261.192 220.796 261.096 220.796C261 220.796 260.922 220.874 260.922 220.97C260.922 221.066 261 221.144 261.096 221.144Z" fill="black"/>
<path opacity="0.8" d="M259.034 221.393C259.13 221.393 259.208 221.315 259.208 221.219C259.208 221.123 259.13 221.045 259.034 221.045C258.938 221.045 258.86 221.123 258.86 221.219C258.86 221.315 258.938 221.393 259.034 221.393Z" fill="black"/>
<path opacity="0.8" d="M256.898 221.491C256.994 221.491 257.072 221.414 257.072 221.318C257.072 221.221 256.994 221.144 256.898 221.144C256.802 221.144 256.724 221.221 256.724 221.318C256.724 221.414 256.802 221.491 256.898 221.491Z" fill="black"/>
<path opacity="0.8" d="M253.832 221.07C253.928 221.07 254.006 220.992 254.006 220.896C254.006 220.8 253.928 220.722 253.832 220.722C253.736 220.722 253.658 220.8 253.658 220.896C253.658 220.992 253.736 221.07 253.832 221.07Z" fill="black"/>
<path opacity="0.8" d="M254.848 221.317C254.944 221.317 255.022 221.24 255.022 221.144C255.022 221.047 254.944 220.97 254.848 220.97C254.752 220.97 254.674 221.047 254.674 221.144C254.674 221.24 254.752 221.317 254.848 221.317Z" fill="black"/>
<path opacity="0.8" d="M251.934 220.722C252.03 220.722 252.108 220.644 252.108 220.548C252.108 220.452 252.03 220.374 251.934 220.374C251.838 220.374 251.76 220.452 251.76 220.548C251.76 220.644 251.838 220.722 251.934 220.722Z" fill="black"/>
<path opacity="0.8" d="M252.848 220.896C252.944 220.896 253.022 220.818 253.022 220.722C253.022 220.626 252.944 220.548 252.848 220.548C252.752 220.548 252.674 220.626 252.674 220.722C252.674 220.818 252.752 220.896 252.848 220.896Z" fill="black"/>
<path opacity="0.8" d="M250.932 220.374C251.028 220.374 251.106 220.296 251.106 220.2C251.106 220.104 251.028 220.026 250.932 220.026C250.836 220.026 250.758 220.104 250.758 220.2C250.758 220.296 250.836 220.374 250.932 220.374Z" fill="black"/>
<path opacity="0.8" d="M262.054 220.97C262.15 220.97 262.228 220.892 262.228 220.796C262.228 220.699 262.15 220.622 262.054 220.622C261.958 220.622 261.88 220.699 261.88 220.796C261.88 220.892 261.958 220.97 262.054 220.97Z" fill="black"/>
<path opacity="0.8" d="M260.035 221.317C260.131 221.317 260.209 221.24 260.209 221.144C260.209 221.047 260.131 220.97 260.035 220.97C259.939 220.97 259.861 221.047 259.861 221.144C259.861 221.24 259.939 221.317 260.035 221.317Z" fill="black"/>
<path opacity="0.8" d="M257.845 221.491C257.941 221.491 258.019 221.414 258.019 221.318C258.019 221.221 257.941 221.144 257.845 221.144C257.749 221.144 257.671 221.221 257.671 221.318C257.671 221.414 257.749 221.491 257.845 221.491Z" fill="black"/>
<path opacity="0.8" d="M255.853 221.491C255.949 221.491 256.027 221.414 256.027 221.318C256.027 221.221 255.949 221.144 255.853 221.144C255.757 221.144 255.679 221.221 255.679 221.318C255.679 221.414 255.757 221.491 255.853 221.491Z" fill="black"/>
</g>
<g opacity="0.8">
<path opacity="0.8" d="M265.027 220.983C265.123 220.983 265.201 220.905 265.201 220.809C265.201 220.713 265.123 220.635 265.027 220.635C264.931 220.635 264.853 220.713 264.853 220.809C264.853 220.905 264.931 220.983 265.027 220.983Z" fill="black"/>
<path opacity="0.8" d="M264.144 221.23C264.24 221.23 264.318 221.152 264.318 221.056C264.318 220.96 264.24 220.882 264.144 220.882C264.048 220.882 263.97 220.96 263.97 221.056C263.97 221.152 264.048 221.23 264.144 221.23Z" fill="black"/>
<path opacity="0.8" d="M263.053 221.578C263.149 221.578 263.227 221.5 263.227 221.404C263.227 221.308 263.149 221.23 263.053 221.23C262.957 221.23 262.879 221.308 262.879 221.404C262.879 221.5 262.957 221.578 263.053 221.578Z" fill="black"/>
<path opacity="0.8" d="M261.096 222C261.192 222 261.27 221.922 261.27 221.826C261.27 221.73 261.192 221.652 261.096 221.652C261 221.652 260.922 221.73 260.922 221.826C260.922 221.922 261 222 261.096 222Z" fill="black"/>
<path opacity="0.8" d="M259.034 222.249C259.13 222.249 259.208 222.171 259.208 222.075C259.208 221.979 259.13 221.901 259.034 221.901C258.938 221.901 258.86 221.979 258.86 222.075C258.86 222.171 258.938 222.249 259.034 222.249Z" fill="black"/>
<path opacity="0.8" d="M256.898 222.348C256.994 222.348 257.072 222.27 257.072 222.174C257.072 222.077 256.994 222 256.898 222C256.802 222 256.724 222.077 256.724 222.174C256.724 222.27 256.802 222.348 256.898 222.348Z" fill="black"/>
<path opacity="0.8" d="M253.832 221.926C253.928 221.926 254.006 221.848 254.006 221.752C254.006 221.656 253.928 221.578 253.832 221.578C253.736 221.578 253.658 221.656 253.658 221.752C253.658 221.848 253.736 221.926 253.832 221.926Z" fill="black"/>
<path opacity="0.8" d="M254.848 222.173C254.944 222.173 255.022 222.096 255.022 222C255.022 221.903 254.944 221.826 254.848 221.826C254.752 221.826 254.674 221.903 254.674 222C254.674 222.096 254.752 222.173 254.848 222.173Z" fill="black"/>
<path opacity="0.8" d="M251.934 221.578C252.03 221.578 252.108 221.5 252.108 221.404C252.108 221.308 252.03 221.23 251.934 221.23C251.838 221.23 251.76 221.308 251.76 221.404C251.76 221.5 251.838 221.578 251.934 221.578Z" fill="black"/>
<path opacity="0.8" d="M252.848 221.752C252.944 221.752 253.022 221.674 253.022 221.578C253.022 221.482 252.944 221.404 252.848 221.404C252.752 221.404 252.674 221.482 252.674 221.578C252.674 221.674 252.752 221.752 252.848 221.752Z" fill="black"/>
<path opacity="0.8" d="M250.932 221.23C251.028 221.23 251.106 221.152 251.106 221.056C251.106 220.96 251.028 220.882 250.932 220.882C250.836 220.882 250.758 220.96 250.758 221.056C250.758 221.152 250.836 221.23 250.932 221.23Z" fill="black"/>
<path opacity="0.8" d="M262.054 221.826C262.15 221.826 262.228 221.748 262.228 221.652C262.228 221.556 262.15 221.478 262.054 221.478C261.958 221.478 261.88 221.556 261.88 221.652C261.88 221.748 261.958 221.826 262.054 221.826Z" fill="black"/>
<path opacity="0.8" d="M260.035 222.173C260.131 222.173 260.209 222.096 260.209 222C260.209 221.903 260.131 221.826 260.035 221.826C259.939 221.826 259.861 221.903 259.861 222C259.861 222.096 259.939 222.173 260.035 222.173Z" fill="black"/>
<path opacity="0.8" d="M257.845 222.348C257.941 222.348 258.019 222.27 258.019 222.174C258.019 222.077 257.941 222 257.845 222C257.749 222 257.671 222.077 257.671 222.174C257.671 222.27 257.749 222.348 257.845 222.348Z" fill="black"/>
<path opacity="0.8" d="M255.853 222.348C255.949 222.348 256.027 222.27 256.027 222.174C256.027 222.077 255.949 222 255.853 222C255.757 222 255.679 222.077 255.679 222.174C255.679 222.27 255.757 222.348 255.853 222.348Z" fill="black"/>
</g>
<g opacity="0.8">
<path opacity="0.8" d="M265.027 221.839C265.123 221.839 265.201 221.761 265.201 221.665C265.201 221.569 265.123 221.491 265.027 221.491C264.931 221.491 264.853 221.569 264.853 221.665C264.853 221.761 264.931 221.839 265.027 221.839Z" fill="black"/>
<path opacity="0.8" d="M264.144 222.086C264.24 222.086 264.318 222.008 264.318 221.912C264.318 221.816 264.24 221.738 264.144 221.738C264.048 221.738 263.97 221.816 263.97 221.912C263.97 222.008 264.048 222.086 264.144 222.086Z" fill="black"/>
<path opacity="0.8" d="M263.053 222.434C263.149 222.434 263.227 222.356 263.227 222.26C263.227 222.164 263.149 222.086 263.053 222.086C262.957 222.086 262.879 222.164 262.879 222.26C262.879 222.356 262.957 222.434 263.053 222.434Z" fill="black"/>
<path opacity="0.8" d="M261.096 222.856C261.192 222.856 261.27 222.778 261.27 222.682C261.27 222.586 261.192 222.508 261.096 222.508C261 222.508 260.922 222.586 260.922 222.682C260.922 222.778 261 222.856 261.096 222.856Z" fill="black"/>
<path opacity="0.8" d="M259.034 223.105C259.13 223.105 259.208 223.027 259.208 222.931C259.208 222.835 259.13 222.757 259.034 222.757C258.938 222.757 258.86 222.835 258.86 222.931C258.86 223.027 258.938 223.105 259.034 223.105Z" fill="black"/>
<path opacity="0.8" d="M256.898 223.204C256.994 223.204 257.072 223.126 257.072 223.03C257.072 222.934 256.994 222.856 256.898 222.856C256.802 222.856 256.724 222.934 256.724 223.03C256.724 223.126 256.802 223.204 256.898 223.204Z" fill="black"/>
<path opacity="0.8" d="M253.832 222.782C253.928 222.782 254.006 222.704 254.006 222.608C254.006 222.512 253.928 222.434 253.832 222.434C253.736 222.434 253.658 222.512 253.658 222.608C253.658 222.704 253.736 222.782 253.832 222.782Z" fill="black"/>
<path opacity="0.8" d="M254.848 223.03C254.944 223.03 255.022 222.952 255.022 222.856C255.022 222.759 254.944 222.682 254.848 222.682C254.752 222.682 254.674 222.759 254.674 222.856C254.674 222.952 254.752 223.03 254.848 223.03Z" fill="black"/>
<path opacity="0.8" d="M251.934 222.434C252.03 222.434 252.108 222.356 252.108 222.26C252.108 222.164 252.03 222.086 251.934 222.086C251.838 222.086 251.76 222.164 251.76 222.26C251.76 222.356 251.838 222.434 251.934 222.434Z" fill="black"/>
<path opacity="0.8" d="M252.848 222.608C252.944 222.608 253.022 222.53 253.022 222.434C253.022 222.338 252.944 222.26 252.848 222.26C252.752 222.26 252.674 222.338 252.674 222.434C252.674 222.53 252.752 222.608 252.848 222.608Z" fill="black"/>
<path opacity="0.8" d="M250.932 222.086C251.028 222.086 251.106 222.008 251.106 221.912C251.106 221.816 251.028 221.738 250.932 221.738C250.836 221.738 250.758 221.816 250.758 221.912C250.758 222.008 250.836 222.086 250.932 222.086Z" fill="black"/>
<path opacity="0.8" d="M262.054 222.682C262.15 222.682 262.228 222.604 262.228 222.508C262.228 222.412 262.15 222.334 262.054 222.334C261.958 222.334 261.88 222.412 261.88 222.508C261.88 222.604 261.958 222.682 262.054 222.682Z" fill="black"/>
<path opacity="0.8" d="M260.035 223.03C260.131 223.03 260.209 222.952 260.209 222.856C260.209 222.759 260.131 222.682 260.035 222.682C259.939 222.682 259.861 222.759 259.861 222.856C259.861 222.952 259.939 223.03 260.035 223.03Z" fill="black"/>
<path opacity="0.8" d="M257.845 223.204C257.941 223.204 258.019 223.126 258.019 223.03C258.019 222.934 257.941 222.856 257.845 222.856C257.749 222.856 257.671 222.934 257.671 223.03C257.671 223.126 257.749 223.204 257.845 223.204Z" fill="black"/>
<path opacity="0.8" d="M255.853 223.204C255.949 223.204 256.027 223.126 256.027 223.03C256.027 222.934 255.949 222.856 255.853 222.856C255.757 222.856 255.679 222.934 255.679 223.03C255.679 223.126 255.757 223.204 255.853 223.204Z" fill="black"/>
</g>
<g opacity="0.8">
<path opacity="0.8" d="M265.027 222.695C265.123 222.695 265.201 222.618 265.201 222.521C265.201 222.425 265.123 222.348 265.027 222.348C264.931 222.348 264.853 222.425 264.853 222.521C264.853 222.618 264.931 222.695 265.027 222.695Z" fill="black"/>
<path opacity="0.8" d="M264.144 222.942C264.24 222.942 264.318 222.864 264.318 222.768C264.318 222.672 264.24 222.594 264.144 222.594C264.048 222.594 263.97 222.672 263.97 222.768C263.97 222.864 264.048 222.942 264.144 222.942Z" fill="black"/>
<path opacity="0.8" d="M263.053 223.29C263.149 223.29 263.227 223.212 263.227 223.116C263.227 223.02 263.149 222.942 263.053 222.942C262.957 222.942 262.879 223.02 262.879 223.116C262.879 223.212 262.957 223.29 263.053 223.29Z" fill="black"/>
<path opacity="0.8" d="M261.096 223.712C261.192 223.712 261.27 223.634 261.27 223.538C261.27 223.442 261.192 223.364 261.096 223.364C261 223.364 260.922 223.442 260.922 223.538C260.922 223.634 261 223.712 261.096 223.712Z" fill="black"/>
<path opacity="0.8" d="M259.034 223.961C259.13 223.961 259.208 223.883 259.208 223.787C259.208 223.691 259.13 223.613 259.034 223.613C258.938 223.613 258.86 223.691 258.86 223.787C258.86 223.883 258.938 223.961 259.034 223.961Z" fill="black"/>
<path opacity="0.8" d="M256.898 224.06C256.994 224.06 257.072 223.982 257.072 223.886C257.072 223.79 256.994 223.712 256.898 223.712C256.802 223.712 256.724 223.79 256.724 223.886C256.724 223.982 256.802 224.06 256.898 224.06Z" fill="black"/>
<path opacity="0.8" d="M253.832 223.638C253.928 223.638 254.006 223.56 254.006 223.464C254.006 223.368 253.928 223.29 253.832 223.29C253.736 223.29 253.658 223.368 253.658 223.464C253.658 223.56 253.736 223.638 253.832 223.638Z" fill="black"/>
<path opacity="0.8" d="M254.848 223.886C254.944 223.886 255.022 223.808 255.022 223.712C255.022 223.616 254.944 223.538 254.848 223.538C254.752 223.538 254.674 223.616 254.674 223.712C254.674 223.808 254.752 223.886 254.848 223.886Z" fill="black"/>
<path opacity="0.8" d="M251.934 223.29C252.03 223.29 252.108 223.212 252.108 223.116C252.108 223.02 252.03 222.942 251.934 222.942C251.838 222.942 251.76 223.02 251.76 223.116C251.76 223.212 251.838 223.29 251.934 223.29Z" fill="black"/>
<path opacity="0.8" d="M252.848 223.464C252.944 223.464 253.022 223.386 253.022 223.29C253.022 223.194 252.944 223.116 252.848 223.116C252.752 223.116 252.674 223.194 252.674 223.29C252.674 223.386 252.752 223.464 252.848 223.464Z" fill="black"/>
<path opacity="0.8" d="M250.932 222.942C251.028 222.942 251.106 222.864 251.106 222.768C251.106 222.672 251.028 222.594 250.932 222.594C250.836 222.594 250.758 222.672 250.758 222.768C250.758 222.864 250.836 222.942 250.932 222.942Z" fill="black"/>
<path opacity="0.8" d="M262.054 223.538C262.15 223.538 262.228 223.46 262.228 223.364C262.228 223.268 262.15 223.19 262.054 223.19C261.958 223.19 261.88 223.268 261.88 223.364C261.88 223.46 261.958 223.538 262.054 223.538Z" fill="black"/>
<path opacity="0.8" d="M260.035 223.886C260.131 223.886 260.209 223.808 260.209 223.712C260.209 223.616 260.131 223.538 260.035 223.538C259.939 223.538 259.861 223.616 259.861 223.712C259.861 223.808 259.939 223.886 260.035 223.886Z" fill="black"/>
<path opacity="0.8" d="M257.845 224.06C257.941 224.06 258.019 223.982 258.019 223.886C258.019 223.79 257.941 223.712 257.845 223.712C257.749 223.712 257.671 223.79 257.671 223.886C257.671 223.982 257.749 224.06 257.845 224.06Z" fill="black"/>
<path opacity="0.8" d="M255.853 224.06C255.949 224.06 256.027 223.982 256.027 223.886C256.027 223.79 255.949 223.712 255.853 223.712C255.757 223.712 255.679 223.79 255.679 223.886C255.679 223.982 255.757 224.06 255.853 224.06Z" fill="black"/>
</g>
<g opacity="0.8">
<path opacity="0.8" d="M265.027 223.551C265.123 223.551 265.201 223.474 265.201 223.377C265.201 223.281 265.123 223.204 265.027 223.204C264.931 223.204 264.853 223.281 264.853 223.377C264.853 223.474 264.931 223.551 265.027 223.551Z" fill="black"/>
<path opacity="0.8" d="M264.144 223.798C264.24 223.798 264.318 223.72 264.318 223.624C264.318 223.528 264.24 223.45 264.144 223.45C264.048 223.45 263.97 223.528 263.97 223.624C263.97 223.72 264.048 223.798 264.144 223.798Z" fill="black"/>
<path opacity="0.8" d="M263.053 224.146C263.149 224.146 263.227 224.068 263.227 223.972C263.227 223.876 263.149 223.798 263.053 223.798C262.957 223.798 262.879 223.876 262.879 223.972C262.879 224.068 262.957 224.146 263.053 224.146Z" fill="black"/>
<path opacity="0.8" d="M261.096 224.568C261.192 224.568 261.27 224.49 261.27 224.394C261.27 224.298 261.192 224.22 261.096 224.22C261 224.22 260.922 224.298 260.922 224.394C260.922 224.49 261 224.568 261.096 224.568Z" fill="black"/>
<path opacity="0.8" d="M259.034 224.817C259.13 224.817 259.208 224.74 259.208 224.643C259.208 224.547 259.13 224.47 259.034 224.47C258.938 224.47 258.86 224.547 258.86 224.643C258.86 224.74 258.938 224.817 259.034 224.817Z" fill="black"/>
<path opacity="0.8" d="M256.898 224.916C256.994 224.916 257.072 224.838 257.072 224.742C257.072 224.646 256.994 224.568 256.898 224.568C256.802 224.568 256.724 224.646 256.724 224.742C256.724 224.838 256.802 224.916 256.898 224.916Z" fill="black"/>
<path opacity="0.8" d="M253.832 224.494C253.928 224.494 254.006 224.416 254.006 224.32C254.006 224.224 253.928 224.146 253.832 224.146C253.736 224.146 253.658 224.224 253.658 224.32C253.658 224.416 253.736 224.494 253.832 224.494Z" fill="black"/>
<path opacity="0.8" d="M254.848 224.742C254.944 224.742 255.022 224.664 255.022 224.568C255.022 224.472 254.944 224.394 254.848 224.394C254.752 224.394 254.674 224.472 254.674 224.568C254.674 224.664 254.752 224.742 254.848 224.742Z" fill="black"/>
<path opacity="0.8" d="M251.934 224.146C252.03 224.146 252.108 224.068 252.108 223.972C252.108 223.876 252.03 223.798 251.934 223.798C251.838 223.798 251.76 223.876 251.76 223.972C251.76 224.068 251.838 224.146 251.934 224.146Z" fill="black"/>
<path opacity="0.8" d="M252.848 224.32C252.944 224.32 253.022 224.242 253.022 224.146C253.022 224.05 252.944 223.972 252.848 223.972C252.752 223.972 252.674 224.05 252.674 224.146C252.674 224.242 252.752 224.32 252.848 224.32Z" fill="black"/>
<path opacity="0.8" d="M250.932 223.798C251.028 223.798 251.106 223.72 251.106 223.624C251.106 223.528 251.028 223.45 250.932 223.45C250.836 223.45 250.758 223.528 250.758 223.624C250.758 223.72 250.836 223.798 250.932 223.798Z" fill="black"/>
<path opacity="0.8" d="M262.054 224.394C262.15 224.394 262.228 224.316 262.228 224.22C262.228 224.124 262.15 224.046 262.054 224.046C261.958 224.046 261.88 224.124 261.88 224.22C261.88 224.316 261.958 224.394 262.054 224.394Z" fill="black"/>
<path opacity="0.8" d="M260.035 224.742C260.131 224.742 260.209 224.664 260.209 224.568C260.209 224.472 260.131 224.394 260.035 224.394C259.939 224.394 259.861 224.472 259.861 224.568C259.861 224.664 259.939 224.742 260.035 224.742Z" fill="black"/>
<path opacity="0.8" d="M257.845 224.916C257.941 224.916 258.019 224.838 258.019 224.742C258.019 224.646 257.941 224.568 257.845 224.568C257.749 224.568 257.671 224.646 257.671 224.742C257.671 224.838 257.749 224.916 257.845 224.916Z" fill="black"/>
<path opacity="0.8" d="M255.853 224.916C255.949 224.916 256.027 224.838 256.027 224.742C256.027 224.646 255.949 224.568 255.853 224.568C255.757 224.568 255.679 224.646 255.679 224.742C255.679 224.838 255.757 224.916 255.853 224.916Z" fill="black"/>
</g>
<g opacity="0.8">
<path opacity="0.8" d="M265.027 224.407C265.123 224.407 265.201 224.33 265.201 224.234C265.201 224.137 265.123 224.06 265.027 224.06C264.931 224.06 264.853 224.137 264.853 224.234C264.853 224.33 264.931 224.407 265.027 224.407Z" fill="black"/>
<path opacity="0.8" d="M264.144 224.654C264.24 224.654 264.318 224.576 264.318 224.48C264.318 224.384 264.24 224.306 264.144 224.306C264.048 224.306 263.97 224.384 263.97 224.48C263.97 224.576 264.048 224.654 264.144 224.654Z" fill="black"/>
<path opacity="0.8" d="M263.053 225.002C263.149 225.002 263.227 224.924 263.227 224.828C263.227 224.732 263.149 224.654 263.053 224.654C262.957 224.654 262.879 224.732 262.879 224.828C262.879 224.924 262.957 225.002 263.053 225.002Z" fill="black"/>
<path opacity="0.8" d="M261.096 225.424C261.192 225.424 261.27 225.346 261.27 225.25C261.27 225.154 261.192 225.076 261.096 225.076C261 225.076 260.922 225.154 260.922 225.25C260.922 225.346 261 225.424 261.096 225.424Z" fill="black"/>
<path opacity="0.8" d="M259.034 225.673C259.13 225.673 259.208 225.596 259.208 225.5C259.208 225.403 259.13 225.326 259.034 225.326C258.938 225.326 258.86 225.403 258.86 225.5C258.86 225.596 258.938 225.673 259.034 225.673Z" fill="black"/>
<path opacity="0.8" d="M256.898 225.772C256.994 225.772 257.072 225.694 257.072 225.598C257.072 225.502 256.994 225.424 256.898 225.424C256.802 225.424 256.724 225.502 256.724 225.598C256.724 225.694 256.802 225.772 256.898 225.772Z" fill="black"/>
<path opacity="0.8" d="M253.832 225.35C253.928 225.35 254.006 225.272 254.006 225.176C254.006 225.08 253.928 225.002 253.832 225.002C253.736 225.002 253.658 225.08 253.658 225.176C253.658 225.272 253.736 225.35 253.832 225.35Z" fill="black"/>
<path opacity="0.8" d="M254.848 225.598C254.944 225.598 255.022 225.52 255.022 225.424C255.022 225.328 254.944 225.25 254.848 225.25C254.752 225.25 254.674 225.328 254.674 225.424C254.674 225.52 254.752 225.598 254.848 225.598Z" fill="black"/>
<path opacity="0.8" d="M251.934 225.002C252.03 225.002 252.108 224.924 252.108 224.828C252.108 224.732 252.03 224.654 251.934 224.654C251.838 224.654 251.76 224.732 251.76 224.828C251.76 224.924 251.838 225.002 251.934 225.002Z" fill="black"/>
<path opacity="0.8" d="M252.848 225.176C252.944 225.176 253.022 225.098 253.022 225.002C253.022 224.906 252.944 224.828 252.848 224.828C252.752 224.828 252.674 224.906 252.674 225.002C252.674 225.098 252.752 225.176 252.848 225.176Z" fill="black"/>
<path opacity="0.8" d="M250.932 224.654C251.028 224.654 251.106 224.576 251.106 224.48C251.106 224.384 251.028 224.306 250.932 224.306C250.836 224.306 250.758 224.384 250.758 224.48C250.758 224.576 250.836 224.654 250.932 224.654Z" fill="black"/>
<path opacity="0.8" d="M262.054 225.25C262.15 225.25 262.228 225.172 262.228 225.076C262.228 224.98 262.15 224.902 262.054 224.902C261.958 224.902 261.88 224.98 261.88 225.076C261.88 225.172 261.958 225.25 262.054 225.25Z" fill="black"/>
<path opacity="0.8" d="M260.035 225.598C260.131 225.598 260.209 225.52 260.209 225.424C260.209 225.328 260.131 225.25 260.035 225.25C259.939 225.25 259.861 225.328 259.861 225.424C259.861 225.52 259.939 225.598 260.035 225.598Z" fill="black"/>
<path opacity="0.8" d="M257.845 225.772C257.941 225.772 258.019 225.694 258.019 225.598C258.019 225.502 257.941 225.424 257.845 225.424C257.749 225.424 257.671 225.502 257.671 225.598C257.671 225.694 257.749 225.772 257.845 225.772Z" fill="black"/>
<path opacity="0.8" d="M255.853 225.772C255.949 225.772 256.027 225.694 256.027 225.598C256.027 225.502 255.949 225.424 255.853 225.424C255.757 225.424 255.679 225.502 255.679 225.598C255.679 225.694 255.757 225.772 255.853 225.772Z" fill="black"/>
</g>
<g opacity="0.8">
<path opacity="0.8" d="M265.027 225.264C265.123 225.264 265.201 225.186 265.201 225.09C265.201 224.993 265.123 224.916 265.027 224.916C264.931 224.916 264.853 224.993 264.853 225.09C264.853 225.186 264.931 225.264 265.027 225.264Z" fill="black"/>
<path opacity="0.8" d="M264.144 225.51C264.24 225.51 264.318 225.433 264.318 225.337C264.318 225.24 264.24 225.163 264.144 225.163C264.048 225.163 263.97 225.24 263.97 225.337C263.97 225.433 264.048 225.51 264.144 225.51Z" fill="black"/>
<path opacity="0.8" d="M263.053 225.858C263.149 225.858 263.227 225.78 263.227 225.684C263.227 225.588 263.149 225.51 263.053 225.51C262.957 225.51 262.879 225.588 262.879 225.684C262.879 225.78 262.957 225.858 263.053 225.858Z" fill="black"/>
<path opacity="0.8" d="M261.096 226.28C261.192 226.28 261.27 226.202 261.27 226.106C261.27 226.01 261.192 225.932 261.096 225.932C261 225.932 260.922 226.01 260.922 226.106C260.922 226.202 261 226.28 261.096 226.28Z" fill="black"/>
<path opacity="0.8" d="M259.034 226.529C259.13 226.529 259.208 226.452 259.208 226.356C259.208 226.259 259.13 226.182 259.034 226.182C258.938 226.182 258.86 226.259 258.86 226.356C258.86 226.452 258.938 226.529 259.034 226.529Z" fill="black"/>
<path opacity="0.8" d="M256.898 226.628C256.994 226.628 257.072 226.55 257.072 226.454C257.072 226.358 256.994 226.28 256.898 226.28C256.802 226.28 256.724 226.358 256.724 226.454C256.724 226.55 256.802 226.628 256.898 226.628Z" fill="black"/>
<path opacity="0.8" d="M253.832 226.206C253.928 226.206 254.006 226.128 254.006 226.032C254.006 225.936 253.928 225.858 253.832 225.858C253.736 225.858 253.658 225.936 253.658 226.032C253.658 226.128 253.736 226.206 253.832 226.206Z" fill="black"/>
<path opacity="0.8" d="M254.848 226.454C254.944 226.454 255.022 226.376 255.022 226.28C255.022 226.184 254.944 226.106 254.848 226.106C254.752 226.106 254.674 226.184 254.674 226.28C254.674 226.376 254.752 226.454 254.848 226.454Z" fill="black"/>
<path opacity="0.8" d="M251.934 225.858C252.03 225.858 252.108 225.78 252.108 225.684C252.108 225.588 252.03 225.51 251.934 225.51C251.838 225.51 251.76 225.588 251.76 225.684C251.76 225.78 251.838 225.858 251.934 225.858Z" fill="black"/>
<path opacity="0.8" d="M252.848 226.032C252.944 226.032 253.022 225.954 253.022 225.858C253.022 225.762 252.944 225.684 252.848 225.684C252.752 225.684 252.674 225.762 252.674 225.858C252.674 225.954 252.752 226.032 252.848 226.032Z" fill="black"/>
<path opacity="0.8" d="M250.932 225.51C251.028 225.51 251.106 225.433 251.106 225.337C251.106 225.24 251.028 225.163 250.932 225.163C250.836 225.163 250.758 225.24 250.758 225.337C250.758 225.433 250.836 225.51 250.932 225.51Z" fill="black"/>
<path opacity="0.8" d="M262.054 226.106C262.15 226.106 262.228 226.028 262.228 225.932C262.228 225.836 262.15 225.758 262.054 225.758C261.958 225.758 261.88 225.836 261.88 225.932C261.88 226.028 261.958 226.106 262.054 226.106Z" fill="black"/>
<path opacity="0.8" d="M260.035 226.454C260.131 226.454 260.209 226.376 260.209 226.28C260.209 226.184 260.131 226.106 260.035 226.106C259.939 226.106 259.861 226.184 259.861 226.28C259.861 226.376 259.939 226.454 260.035 226.454Z" fill="black"/>
<path opacity="0.8" d="M257.845 226.628C257.941 226.628 258.019 226.55 258.019 226.454C258.019 226.358 257.941 226.28 257.845 226.28C257.749 226.28 257.671 226.358 257.671 226.454C257.671 226.55 257.749 226.628 257.845 226.628Z" fill="black"/>
<path opacity="0.8" d="M255.853 226.628C255.949 226.628 256.027 226.55 256.027 226.454C256.027 226.358 255.949 226.28 255.853 226.28C255.757 226.28 255.679 226.358 255.679 226.454C255.679 226.55 255.757 226.628 255.853 226.628Z" fill="black"/>
</g>
<g opacity="0.8">
<path opacity="0.8" d="M265.027 226.12C265.123 226.12 265.201 226.042 265.201 225.946C265.201 225.849 265.123 225.772 265.027 225.772C264.931 225.772 264.853 225.849 264.853 225.946C264.853 226.042 264.931 226.12 265.027 226.12Z" fill="black"/>
<path opacity="0.8" d="M264.144 226.366C264.24 226.366 264.318 226.289 264.318 226.193C264.318 226.096 264.24 226.019 264.144 226.019C264.048 226.019 263.97 226.096 263.97 226.193C263.97 226.289 264.048 226.366 264.144 226.366Z" fill="black"/>
<path opacity="0.8" d="M263.053 226.714C263.149 226.714 263.227 226.637 263.227 226.54C263.227 226.444 263.149 226.366 263.053 226.366C262.957 226.366 262.879 226.444 262.879 226.54C262.879 226.637 262.957 226.714 263.053 226.714Z" fill="black"/>
<path opacity="0.8" d="M261.096 227.136C261.192 227.136 261.27 227.058 261.27 226.962C261.27 226.866 261.192 226.788 261.096 226.788C261 226.788 260.922 226.866 260.922 226.962C260.922 227.058 261 227.136 261.096 227.136Z" fill="black"/>
<path opacity="0.8" d="M259.034 227.386C259.13 227.386 259.208 227.308 259.208 227.212C259.208 227.115 259.13 227.038 259.034 227.038C258.938 227.038 258.86 227.115 258.86 227.212C258.86 227.308 258.938 227.386 259.034 227.386Z" fill="black"/>
<path opacity="0.8" d="M256.898 227.484C256.994 227.484 257.072 227.406 257.072 227.31C257.072 227.214 256.994 227.136 256.898 227.136C256.802 227.136 256.724 227.214 256.724 227.31C256.724 227.406 256.802 227.484 256.898 227.484Z" fill="black"/>
<path opacity="0.8" d="M253.832 227.062C253.928 227.062 254.006 226.984 254.006 226.888C254.006 226.792 253.928 226.714 253.832 226.714C253.736 226.714 253.658 226.792 253.658 226.888C253.658 226.984 253.736 227.062 253.832 227.062Z" fill="black"/>
<path opacity="0.8" d="M254.848 227.31C254.944 227.31 255.022 227.232 255.022 227.136C255.022 227.04 254.944 226.962 254.848 226.962C254.752 226.962 254.674 227.04 254.674 227.136C254.674 227.232 254.752 227.31 254.848 227.31Z" fill="black"/>
<path opacity="0.8" d="M251.934 226.714C252.03 226.714 252.108 226.637 252.108 226.54C252.108 226.444 252.03 226.366 251.934 226.366C251.838 226.366 251.76 226.444 251.76 226.54C251.76 226.637 251.838 226.714 251.934 226.714Z" fill="black"/>
<path opacity="0.8" d="M252.848 226.888C252.944 226.888 253.022 226.81 253.022 226.714C253.022 226.618 252.944 226.54 252.848 226.54C252.752 226.54 252.674 226.618 252.674 226.714C252.674 226.81 252.752 226.888 252.848 226.888Z" fill="black"/>
<path opacity="0.8" d="M250.932 226.366C251.028 226.366 251.106 226.289 251.106 226.193C251.106 226.096 251.028 226.019 250.932 226.019C250.836 226.019 250.758 226.096 250.758 226.193C250.758 226.289 250.836 226.366 250.932 226.366Z" fill="black"/>
<path opacity="0.8" d="M262.054 226.962C262.15 226.962 262.228 226.884 262.228 226.788C262.228 226.692 262.15 226.614 262.054 226.614C261.958 226.614 261.88 226.692 261.88 226.788C261.88 226.884 261.958 226.962 262.054 226.962Z" fill="black"/>
<path opacity="0.8" d="M260.035 227.31C260.131 227.31 260.209 227.232 260.209 227.136C260.209 227.04 260.131 226.962 260.035 226.962C259.939 226.962 259.861 227.04 259.861 227.136C259.861 227.232 259.939 227.31 260.035 227.31Z" fill="black"/>
<path opacity="0.8" d="M257.845 227.484C257.941 227.484 258.019 227.406 258.019 227.31C258.019 227.214 257.941 227.136 257.845 227.136C257.749 227.136 257.671 227.214 257.671 227.31C257.671 227.406 257.749 227.484 257.845 227.484Z" fill="black"/>
<path opacity="0.8" d="M255.853 227.484C255.949 227.484 256.027 227.406 256.027 227.31C256.027 227.214 255.949 227.136 255.853 227.136C255.757 227.136 255.679 227.214 255.679 227.31C255.679 227.406 255.757 227.484 255.853 227.484Z" fill="black"/>
</g>
<g opacity="0.8">
<path opacity="0.8" d="M265.027 226.976C265.123 226.976 265.201 226.898 265.201 226.802C265.201 226.706 265.123 226.628 265.027 226.628C264.931 226.628 264.853 226.706 264.853 226.802C264.853 226.898 264.931 226.976 265.027 226.976Z" fill="black"/>
<path opacity="0.8" d="M264.144 227.222C264.24 227.222 264.318 227.145 264.318 227.048C264.318 226.952 264.24 226.875 264.144 226.875C264.048 226.875 263.97 226.952 263.97 227.048C263.97 227.145 264.048 227.222 264.144 227.222Z" fill="black"/>
<path opacity="0.8" d="M263.053 227.57C263.149 227.57 263.227 227.492 263.227 227.396C263.227 227.3 263.149 227.222 263.053 227.222C262.957 227.222 262.879 227.3 262.879 227.396C262.879 227.492 262.957 227.57 263.053 227.57Z" fill="black"/>
<path opacity="0.8" d="M261.096 227.992C261.192 227.992 261.27 227.914 261.27 227.818C261.27 227.722 261.192 227.644 261.096 227.644C261 227.644 260.922 227.722 260.922 227.818C260.922 227.914 261 227.992 261.096 227.992Z" fill="black"/>
<path opacity="0.8" d="M259.034 228.242C259.13 228.242 259.208 228.164 259.208 228.068C259.208 227.972 259.13 227.894 259.034 227.894C258.938 227.894 258.86 227.972 258.86 228.068C258.86 228.164 258.938 228.242 259.034 228.242Z" fill="black"/>
<path opacity="0.8" d="M256.898 228.34C256.994 228.34 257.072 228.262 257.072 228.166C257.072 228.07 256.994 227.992 256.898 227.992C256.802 227.992 256.724 228.07 256.724 228.166C256.724 228.262 256.802 228.34 256.898 228.34Z" fill="black"/>
<path opacity="0.8" d="M253.832 227.918C253.928 227.918 254.006 227.84 254.006 227.744C254.006 227.648 253.928 227.57 253.832 227.57C253.736 227.57 253.658 227.648 253.658 227.744C253.658 227.84 253.736 227.918 253.832 227.918Z" fill="black"/>
<path opacity="0.8" d="M254.848 228.166C254.944 228.166 255.022 228.088 255.022 227.992C255.022 227.896 254.944 227.818 254.848 227.818C254.752 227.818 254.674 227.896 254.674 227.992C254.674 228.088 254.752 228.166 254.848 228.166Z" fill="black"/>
<path opacity="0.8" d="M251.934 227.57C252.03 227.57 252.108 227.492 252.108 227.396C252.108 227.3 252.03 227.222 251.934 227.222C251.838 227.222 251.76 227.3 251.76 227.396C251.76 227.492 251.838 227.57 251.934 227.57Z" fill="black"/>
<path opacity="0.8" d="M252.848 227.744C252.944 227.744 253.022 227.667 253.022 227.57C253.022 227.474 252.944 227.396 252.848 227.396C252.752 227.396 252.674 227.474 252.674 227.57C252.674 227.667 252.752 227.744 252.848 227.744Z" fill="black"/>
<path opacity="0.8" d="M250.932 227.222C251.028 227.222 251.106 227.145 251.106 227.048C251.106 226.952 251.028 226.875 250.932 226.875C250.836 226.875 250.758 226.952 250.758 227.048C250.758 227.145 250.836 227.222 250.932 227.222Z" fill="black"/>
<path opacity="0.8" d="M262.054 227.818C262.15 227.818 262.228 227.74 262.228 227.644C262.228 227.548 262.15 227.47 262.054 227.47C261.958 227.47 261.88 227.548 261.88 227.644C261.88 227.74 261.958 227.818 262.054 227.818Z" fill="black"/>
<path opacity="0.8" d="M260.035 228.166C260.131 228.166 260.209 228.088 260.209 227.992C260.209 227.896 260.131 227.818 260.035 227.818C259.939 227.818 259.861 227.896 259.861 227.992C259.861 228.088 259.939 228.166 260.035 228.166Z" fill="black"/>
<path opacity="0.8" d="M257.845 228.34C257.941 228.34 258.019 228.262 258.019 228.166C258.019 228.07 257.941 227.992 257.845 227.992C257.749 227.992 257.671 228.07 257.671 228.166C257.671 228.262 257.749 228.34 257.845 228.34Z" fill="black"/>
<path opacity="0.8" d="M255.853 228.34C255.949 228.34 256.027 228.262 256.027 228.166C256.027 228.07 255.949 227.992 255.853 227.992C255.757 227.992 255.679 228.07 255.679 228.166C255.679 228.262 255.757 228.34 255.853 228.34Z" fill="black"/>
</g>
</g>
<defs>
<clipPath id="clip0_4_144">
<rect width="274.093" height="242.396" fill="white"/>
</clipPath>
</defs>
</svg>
