<svg width="335" height="200" viewBox="0 0 335 200" fill="none" xmlns="http://www.w3.org/2000/svg">
<g clip-path="url(#clip0_2_117)">
<path d="M256.484 197.738C252.195 194.119 249.59 188.403 250.273 182.837C250.956 177.272 255.188 172.155 260.677 170.973C266.166 169.792 272.423 173.063 274.09 178.417C275.007 168.095 276.064 157.339 281.56 148.549C286.537 140.589 295.156 134.893 304.498 133.874C313.839 132.855 323.675 136.704 329.501 144.066C335.327 151.429 336.753 162.133 332.673 170.586C329.667 176.813 324.129 181.447 318.327 185.217C299.578 197.297 277.09 202.21 255.003 199.051L256.484 197.738Z" fill="#F2F2F2"/>
<path d="M320.263 136.917C312.555 143.186 305.484 150.198 299.152 157.851C289.242 169.786 281.223 183.168 275.374 197.53C274.945 198.578 276.649 199.034 277.073 197.998C286.643 174.656 301.921 154.084 321.509 138.161C322.388 137.446 321.135 136.208 320.263 136.917Z" fill="white"/>
<path d="M107.842 196.755C113.733 191.784 117.311 183.932 116.373 176.288C115.434 168.644 109.622 161.617 102.083 159.993C94.5442 158.37 85.9502 162.864 83.6604 170.218C82.4002 156.039 80.948 141.267 73.3992 129.193C66.564 118.26 54.7253 110.437 41.8947 109.038C29.0642 107.638 15.5553 112.924 7.55331 123.037C-0.448629 133.149 -2.40787 147.851 3.19648 159.461C7.32501 168.014 14.9312 174.379 22.9006 179.557C48.3258 196.078 79.8657 202.968 109.876 198.558" fill="#F2F2F2"/>
<path d="M20.2412 113.217C30.828 121.828 40.5403 131.458 49.2375 141.969C57.9362 152.47 65.5944 163.788 72.1046 175.765C75.7435 182.483 79.0124 189.395 81.8968 196.469C82.4848 197.908 80.1447 198.535 79.5632 197.112C74.4543 184.64 68.1337 172.698 60.6919 161.457C53.2863 150.257 44.8101 139.801 35.3826 130.235C30.0503 124.827 24.4243 119.716 18.53 114.926C17.3219 113.943 19.043 112.243 20.2412 113.217L20.2412 113.217Z" fill="white"/>
<path d="M240.468 199.562H99.9225V55.5621C99.9225 24.925 124.883 -7.62939e-06 155.563 -7.62939e-06H184.828C215.508 -7.62939e-06 240.468 24.925 240.468 55.5621V199.562Z" fill="#F2F2F2"/>
<path d="M211.204 199.562H99.9226V55.5621C99.8919 43.8227 103.615 32.3799 110.549 22.8999C110.804 22.552 111.059 22.2086 111.322 21.869C114.676 17.4763 118.667 13.6078 123.164 10.391C123.418 10.2065 123.673 10.0251 123.932 9.84373C127.695 7.24343 131.765 5.11774 136.051 3.51503C136.305 3.41872 136.564 3.32221 136.823 3.22965C140.699 1.84851 144.717 0.902432 148.802 0.408891C149.055 0.374343 149.315 0.347308 149.575 0.320273C153.556 -0.104794 157.571 -0.104794 161.552 0.320273C161.812 0.347308 162.072 0.374339 162.328 0.409261C166.412 0.902834 170.429 1.84879 174.303 3.22967C174.563 3.32223 174.822 3.41873 175.077 3.51523C179.309 5.09772 183.332 7.19169 187.055 9.75043C187.313 9.92785 187.572 10.1092 187.827 10.2906C190.348 12.0873 192.716 14.089 194.906 16.2751C196.663 18.0287 198.3 19.8979 199.806 21.8701C200.068 22.2086 200.323 22.552 200.578 22.8994C207.512 32.3795 211.235 43.8224 211.204 55.5621V199.562Z" fill="#CCCCCC"/>
<path d="M202.155 135.156C205.558 135.156 208.316 132.402 208.316 129.004C208.316 125.606 205.558 122.852 202.155 122.852C198.752 122.852 195.994 125.606 195.994 129.004C195.994 132.402 198.752 135.156 202.155 135.156Z" fill="#008080"/>
<path d="M228.955 195.249H224.234L221.988 177.066L228.956 177.067L228.955 195.249Z" fill="#FFB8B8"/>
<path d="M220.862 193.902H229.966V199.626H215.13C215.13 198.875 215.278 198.13 215.566 197.436C215.854 196.741 216.276 196.11 216.809 195.579C217.341 195.047 217.973 194.626 218.668 194.338C219.364 194.05 220.109 193.902 220.862 193.902V193.902Z" fill="#2F2E41"/>
<path d="M252.444 195.249H247.723L245.477 177.066L252.444 177.067L252.444 195.249Z" fill="#FFB8B8"/>
<path d="M244.351 193.902H253.455V199.626H238.618C238.618 198.875 238.767 198.13 239.055 197.436C239.343 196.741 239.765 196.11 240.297 195.579C240.83 195.047 241.461 194.626 242.157 194.338C242.852 194.05 243.598 193.902 244.351 193.902V193.902Z" fill="#2F2E41"/>
<path d="M205.273 130.223C204.934 129.723 204.708 129.155 204.612 128.559C204.516 127.963 204.552 127.353 204.717 126.772C204.883 126.191 205.174 125.654 205.57 125.197C205.966 124.741 206.458 124.377 207.01 124.131L223.058 79.9633L230.954 84.2665L212.631 126.475C212.984 127.429 212.974 128.478 212.603 129.425C212.232 130.372 211.526 131.15 210.619 131.612C209.712 132.074 208.667 132.188 207.682 131.932C206.697 131.676 205.84 131.068 205.273 130.223V130.223Z" fill="#FFB8B8"/>
<path d="M250.032 138.522C249.507 138.222 249.055 137.81 248.707 137.316C248.359 136.823 248.123 136.259 248.017 135.664C247.911 135.07 247.937 134.459 248.092 133.876C248.248 133.292 248.53 132.75 248.918 132.287L243.947 85.5647L252.933 85.9747L254.999 131.932C255.735 132.635 256.187 133.583 256.269 134.596C256.352 135.609 256.059 136.618 255.447 137.43C254.835 138.242 253.945 138.802 252.947 139.004C251.949 139.205 250.912 139.034 250.032 138.522V138.522Z" fill="#FFB8B8"/>
<path d="M235.696 71.7822C240.919 71.7822 245.153 67.554 245.153 62.3382C245.153 57.1224 240.919 52.8942 235.696 52.8942C230.473 52.8942 226.238 57.1224 226.238 62.3382C226.238 67.554 230.473 71.7822 235.696 71.7822Z" fill="#FFB8B8"/>
<path d="M249.971 127.896H221.459L221.493 127.675C221.545 127.343 226.575 94.4377 222.865 83.6725C222.493 82.6146 222.525 81.4565 222.957 80.4213C223.388 79.386 224.188 78.5467 225.202 78.0649C230.505 75.5712 240.684 72.5006 249.276 79.9526C250.54 81.0672 251.527 82.4603 252.16 84.0216C252.792 85.583 253.051 87.2698 252.918 88.9487L249.971 127.896Z" fill="#008080"/>
<path d="M226.935 99.3007L214.099 96.7001L220.116 82.4617C220.476 81.0826 221.369 79.9025 222.599 79.1801C223.83 78.4577 225.296 78.2521 226.678 78.6084C228.06 78.9646 229.244 79.8536 229.971 81.0804C230.697 82.3072 230.906 83.7716 230.553 85.1524L226.935 99.3007Z" fill="#008080"/>
<path d="M243.376 104.129L242.604 86.4642C242.019 83.1434 243.923 80.0043 246.851 79.4911C249.779 78.9799 252.639 81.283 253.226 84.6282L256.127 101.134L243.376 104.129Z" fill="#008080"/>
<path d="M249.023 125.781C253.611 143.229 254.111 165.413 252.873 189.61L246.712 188.841L235.546 142.7L229.385 189.61L222.454 189.226C220.383 163.837 218.367 142.04 221.684 127.704L249.023 125.781Z" fill="#2F2E41"/>
<path d="M241.927 69.6369C240.163 71.5136 236.886 70.5061 236.656 67.9422C236.638 67.7432 236.64 67.5429 236.66 67.3441C236.779 66.2084 237.436 65.1773 237.279 63.9782C237.243 63.6797 237.132 63.3953 236.955 63.1519C235.549 61.2719 232.249 63.9928 230.922 62.2909C230.108 61.2473 231.065 59.6042 230.44 58.4378C229.616 56.8984 227.176 57.6578 225.645 56.8148C223.942 55.8767 224.044 53.2675 225.165 51.6805C226.532 49.745 228.929 48.7122 231.296 48.5634C233.663 48.4145 236.014 49.0535 238.224 49.9136C240.735 50.8908 243.225 52.2412 244.771 54.446C246.65 57.1273 246.831 60.732 245.891 63.8673C245.319 65.7745 243.368 68.1043 241.927 69.6369Z" fill="#2F2E41"/>
<path d="M323.441 199.81H39.1556C39.0342 199.809 38.9179 199.761 38.8322 199.675C38.7466 199.589 38.6984 199.473 38.6984 199.352C38.6984 199.231 38.7466 199.114 38.8322 199.028C38.9179 198.943 39.0342 198.894 39.1556 198.894H323.441C323.563 198.894 323.679 198.943 323.765 199.028C323.85 199.114 323.898 199.231 323.898 199.352C323.898 199.473 323.85 199.589 323.765 199.675C323.679 199.761 323.563 199.809 323.441 199.81V199.81Z" fill="#3F3D56"/>
<path d="M180.592 157.843H130.535C129.875 157.846 129.242 157.588 128.772 157.126C128.303 156.664 128.037 156.034 128.032 155.376V43.8019C128.037 43.1436 128.303 42.5142 128.772 42.0518C129.242 41.5893 129.875 41.3316 130.535 41.3352H180.592C181.251 41.3316 181.885 41.5893 182.354 42.0518C182.824 42.5142 183.09 43.1436 183.095 43.8019V155.376C183.09 156.034 182.824 156.664 182.354 157.126C181.885 157.588 181.251 157.846 180.592 157.843V157.843Z" fill="white"/>
<path d="M183.095 77.437H128.032V78.206H183.095V77.437Z" fill="#CCCCCC"/>
<path d="M183.287 121.314H128.224V122.083H183.287V121.314Z" fill="#CCCCCC"/>
<path d="M146.129 41.3352H145.359V158.227H146.129V41.3352Z" fill="#CCCCCC"/>
<path d="M165.382 41.3352H164.612V158.227H165.382V41.3352Z" fill="#CCCCCC"/>
</g>
<defs>
<clipPath id="clip0_2_117">
<rect width="335" height="200" fill="white"/>
</clipPath>
</defs>
</svg>
