<svg width="222" height="223" viewBox="0 0 222 223" fill="none" xmlns="http://www.w3.org/2000/svg">
<path d="M21.3488 187.858L19.3937 180.135C15.927 178.664 12.3803 177.389 8.77035 176.318L8.52357 179.907L7.52272 175.953C3.04575 174.671 7.62939e-06 174.107 7.62939e-06 174.107C7.62939e-06 174.107 4.11306 189.775 12.7427 201.753L22.7971 203.522L14.9861 204.65C16.0716 205.958 17.2382 207.197 18.4789 208.358C31.0312 220.027 45.0123 225.381 49.7063 220.316C54.4002 215.251 48.0298 201.686 35.4775 190.019C31.5862 186.401 26.6979 183.498 21.8046 181.213L21.3488 187.858Z" fill="#F2F2F2"/>
<path d="M39.9428 179.47L42.2551 171.847C40.0471 168.792 37.6689 165.865 35.1317 163.079L33.0681 166.024L34.2519 162.121C31.0804 158.707 28.7643 156.648 28.7643 156.648C28.7643 156.648 24.1997 172.19 25.4038 186.911L33.0979 193.63L25.8279 190.552C26.0823 192.234 26.442 193.898 26.905 195.535C31.6279 212.022 40.8331 223.843 47.4652 221.937C54.0974 220.032 55.6454 205.122 50.9226 188.634C49.4586 183.523 46.772 178.508 43.7626 174.018L39.9428 179.47Z" fill="#F2F2F2"/>
<path d="M154.911 52.8288H153.691V19.3674C153.691 16.824 153.191 14.3056 152.219 11.9558C151.247 9.60605 149.823 7.47101 148.027 5.67258C146.231 3.87416 144.099 2.44757 141.753 1.47427C139.407 0.500965 136.892 1.52588e-05 134.353 1.52588e-05H63.5644C58.4356 1.52588e-05 53.5168 2.0405 49.8902 5.67258C46.2636 9.30467 44.2262 14.2308 44.2262 19.3674V202.943C44.2262 205.486 44.7264 208.005 45.6982 210.354C46.6701 212.704 48.0945 214.839 49.8902 216.638C51.686 218.436 53.8178 219.863 56.164 220.836C58.5102 221.809 61.0249 222.31 63.5644 222.31H134.353C139.482 222.31 144.4 220.27 148.027 216.637C151.653 213.005 153.691 208.079 153.691 202.943V76.6474H154.91L154.911 52.8288Z" fill="#E6E6E6"/>
<path d="M135.133 5.03681H125.893C126.318 6.08023 126.48 7.21231 126.365 8.33331C126.251 9.4543 125.862 10.5298 125.235 11.4651C124.607 12.4003 123.759 13.1666 122.766 13.6964C121.773 14.2263 120.665 14.5034 119.54 14.5033H78.9862C77.8611 14.5033 76.7532 14.2261 75.7602 13.6962C74.7673 13.1664 73.9196 12.4 73.292 11.4648C72.6644 10.5296 72.2761 9.4541 72.1613 8.33316C72.0465 7.21221 72.2087 6.08019 72.6336 5.03681H64.0034C60.1732 5.03681 56.5 6.56063 53.7916 9.27303C51.0833 11.9854 49.5618 15.6642 49.5618 19.5002V202.809C49.5618 206.645 51.0833 210.324 53.7916 213.036C56.5 215.749 60.1732 217.272 64.0034 217.272H135.133C138.963 217.272 142.636 215.749 145.344 213.036C148.053 210.324 149.574 206.645 149.574 202.809V202.809V19.4999C149.574 15.664 148.053 11.9853 145.344 9.27292C142.636 6.56058 138.963 5.03681 135.133 5.03681V5.03681Z" fill="white"/>
<path d="M90.5046 78.0577C90.5044 76.7764 90.8412 75.5177 91.4811 74.4081C92.121 73.2986 93.0414 72.3774 94.1497 71.7374C93.042 71.0966 91.7853 70.7592 90.506 70.759C89.2267 70.7589 87.97 71.096 86.862 71.7366C85.7541 72.3771 84.834 73.2984 84.1944 74.4079C83.5547 75.5175 83.2179 76.7761 83.2179 78.0573C83.2179 79.3385 83.5547 80.5971 84.1944 81.7067C84.834 82.8162 85.7541 83.7375 86.862 84.378C87.97 85.0186 89.2267 85.3557 90.506 85.3555C91.7853 85.3554 93.042 85.018 94.1497 84.3772C93.0415 83.7373 92.1211 82.8163 91.4812 81.7069C90.8413 80.5975 90.5045 79.3389 90.5046 78.0577V78.0577Z" fill="#CCCCCC"/>
<path d="M99.6654 78.0577C99.6652 76.7764 100.002 75.5176 100.642 74.4081C101.282 73.2985 102.202 72.3774 103.311 71.7374C102.203 71.0966 100.946 70.7592 99.6668 70.759C98.3875 70.7589 97.1308 71.096 96.0228 71.7366C94.9149 72.3771 93.9948 73.2984 93.3552 74.4079C92.7155 75.5175 92.3787 76.7761 92.3787 78.0573C92.3787 79.3385 92.7155 80.5971 93.3552 81.7067C93.9948 82.8162 94.9149 83.7375 96.0228 84.378C97.1308 85.0186 98.3875 85.3557 99.6668 85.3555C100.946 85.3554 102.203 85.018 103.311 84.3772C102.202 83.7373 101.282 82.8163 100.642 81.7069C100.002 80.5975 99.6653 79.3389 99.6654 78.0577V78.0577Z" fill="#CCCCCC"/>
<path d="M108.618 85.3557C112.643 85.3557 115.906 82.0882 115.906 78.0575C115.906 74.0268 112.643 70.7592 108.618 70.7592C104.594 70.7592 101.331 74.0268 101.331 78.0575C101.331 82.0882 104.594 85.3557 108.618 85.3557Z" fill="#008080"/>
<path d="M120.798 100.853H78.3259C77.9216 100.852 77.534 100.691 77.2481 100.405C76.9621 100.119 76.8013 99.7303 76.8008 99.3254V56.7896C76.8013 56.3847 76.9621 55.9964 77.2481 55.7101C77.534 55.4237 77.9216 55.2627 78.3259 55.2622H120.798C121.202 55.2627 121.59 55.4237 121.876 55.7101C122.161 55.9964 122.322 56.3847 122.323 56.7896V99.3254C122.322 99.7303 122.161 100.119 121.876 100.405C121.59 100.691 121.202 100.852 120.798 100.853V100.853ZM78.3259 55.8735C78.0833 55.8738 77.8507 55.9704 77.6792 56.1422C77.5077 56.314 77.4112 56.5469 77.4109 56.7899V99.3257C77.4112 99.5686 77.5077 99.8016 77.6792 99.9734C77.8507 100.145 78.0833 100.242 78.3259 100.242H120.798C121.04 100.242 121.273 100.145 121.444 99.9734C121.616 99.8016 121.712 99.5686 121.713 99.3257V56.7899C121.712 56.5469 121.616 56.314 121.444 56.1422C121.273 55.9704 121.04 55.8738 120.798 55.8735H78.3259Z" fill="#CCCCCC"/>
<path d="M130.281 133.458H65.1417V134.069H130.281V133.458Z" fill="#CCCCCC"/>
<path d="M67.1988 129.644C68.3349 129.644 69.256 128.721 69.256 127.583C69.256 126.445 68.3349 125.523 67.1988 125.523C66.0627 125.523 65.1417 126.445 65.1417 127.583C65.1417 128.721 66.0627 129.644 67.1988 129.644Z" fill="#008080"/>
<path d="M130.281 154.059H65.1417V154.67H130.281V154.059Z" fill="#CCCCCC"/>
<path d="M67.1988 150.245C68.3349 150.245 69.256 149.323 69.256 148.185C69.256 147.047 68.3349 146.125 67.1988 146.125C66.0627 146.125 65.1417 147.047 65.1417 148.185C65.1417 149.323 66.0627 150.245 67.1988 150.245Z" fill="#008080"/>
<path d="M129.089 177.519H108.503C108.148 177.519 107.807 177.377 107.555 177.125C107.304 176.873 107.162 176.532 107.162 176.176V168.95C107.162 168.594 107.304 168.252 107.555 168C107.807 167.749 108.148 167.607 108.503 167.607H129.089C129.444 167.607 129.785 167.749 130.037 168C130.288 168.252 130.43 168.594 130.43 168.95V176.176C130.43 176.532 130.288 176.873 130.037 177.125C129.785 177.377 129.444 177.519 129.089 177.519V177.519Z" fill="#008080"/>
<path d="M73.9089 129.644C75.045 129.644 75.966 128.721 75.966 127.583C75.966 126.445 75.045 125.523 73.9089 125.523C72.7728 125.523 71.8518 126.445 71.8518 127.583C71.8518 128.721 72.7728 129.644 73.9089 129.644Z" fill="#008080"/>
<path d="M80.6194 129.644C81.7555 129.644 82.6765 128.721 82.6765 127.583C82.6765 126.445 81.7555 125.523 80.6194 125.523C79.4832 125.523 78.5622 126.445 78.5622 127.583C78.5622 128.721 79.4832 129.644 80.6194 129.644Z" fill="#008080"/>
<path d="M73.9089 150.245C75.045 150.245 75.966 149.323 75.966 148.185C75.966 147.047 75.045 146.125 73.9089 146.125C72.7728 146.125 71.8518 147.047 71.8518 148.185C71.8518 149.323 72.7728 150.245 73.9089 150.245Z" fill="#008080"/>
<path d="M80.6194 150.245C81.7555 150.245 82.6765 149.323 82.6765 148.185C82.6765 147.047 81.7555 146.125 80.6194 146.125C79.4832 146.125 78.5622 147.047 78.5622 148.185C78.5622 149.323 79.4832 150.245 80.6194 150.245Z" fill="#008080"/>
<path d="M168.301 146.103C168.447 146.17 168.587 146.248 168.721 146.338L182.089 140.623L182.566 137.097L187.908 137.064L187.592 145.153L169.948 149.826C169.911 149.949 169.866 150.069 169.814 150.187C169.559 150.732 169.149 151.189 168.635 151.502C168.121 151.814 167.527 151.967 166.926 151.943C166.325 151.918 165.746 151.716 165.259 151.362C164.773 151.008 164.402 150.518 164.193 149.953C163.983 149.389 163.945 148.775 164.083 148.189C164.221 147.603 164.529 147.071 164.968 146.66C165.407 146.248 165.957 145.976 166.55 145.877C167.143 145.778 167.752 145.856 168.301 146.103V146.103Z" fill="#FFB8B8"/>
<path d="M189.85 219.401H186.196L184.458 205.286L189.851 205.286L189.85 219.401Z" fill="#FFB8B8"/>
<path d="M183.586 218.356H190.633V222.799H179.149C179.149 221.621 179.617 220.491 180.449 219.657C181.281 218.824 182.409 218.356 183.586 218.356Z" fill="#2F2E41"/>
<path d="M204.061 218.367L200.425 218.726L197.313 204.85L202.68 204.32L204.061 218.367Z" fill="#FFB8B8"/>
<path d="M197.725 217.942L204.738 217.25L205.173 221.672L193.744 222.8C193.687 222.219 193.745 221.633 193.914 221.074C194.083 220.516 194.361 219.996 194.73 219.545C195.1 219.094 195.555 218.72 196.068 218.445C196.582 218.17 197.145 217.999 197.725 217.942Z" fill="#2F2E41"/>
<path d="M190.868 122.125C194.91 122.125 198.188 118.843 198.188 114.794C198.188 110.745 194.91 107.463 190.868 107.463C186.825 107.463 183.547 110.745 183.547 114.794C183.547 118.843 186.825 122.125 190.868 122.125Z" fill="#FFB8B8"/>
<path d="M185.379 216.547C185.065 216.548 184.761 216.437 184.52 216.235C184.28 216.033 184.118 215.753 184.064 215.443C182.172 204.928 175.99 170.548 175.842 169.595C175.839 169.573 175.837 169.551 175.838 169.529V166.966C175.837 166.872 175.866 166.781 175.921 166.705L176.738 165.56C176.776 165.505 176.827 165.459 176.886 165.427C176.945 165.395 177.011 165.376 177.078 165.373C181.734 165.155 196.983 164.514 197.72 165.436C198.46 166.362 198.198 169.169 198.138 169.722L198.141 169.78L204.992 213.657C205.046 214.007 204.96 214.364 204.752 214.651C204.545 214.938 204.234 215.132 203.885 215.19L199.606 215.896C199.287 215.947 198.961 215.882 198.686 215.713C198.411 215.544 198.206 215.281 198.108 214.973C196.785 210.738 192.347 196.491 190.809 190.978C190.8 190.943 190.778 190.913 190.747 190.893C190.717 190.873 190.681 190.865 190.645 190.87C190.609 190.875 190.576 190.893 190.553 190.92C190.529 190.948 190.517 190.983 190.517 191.019C190.594 196.274 190.78 209.682 190.844 214.313L190.851 214.812C190.853 215.149 190.73 215.476 190.504 215.727C190.278 215.977 189.966 216.134 189.631 216.166L185.505 216.541C185.463 216.545 185.421 216.547 185.379 216.547Z" fill="#2F2E41"/>
<path d="M186.222 125.008C184.944 125.769 184.18 127.166 183.741 128.589C182.929 131.222 182.44 133.944 182.285 136.696L181.822 144.934L176.083 166.775C181.057 170.99 183.926 170.032 190.622 166.584C197.317 163.137 198.082 167.734 198.082 167.734L199.421 149.15L201.334 128.843C200.905 128.325 200.419 127.857 199.885 127.447C198.117 126.07 196.06 125.113 193.869 124.648C191.677 124.183 189.409 124.222 187.236 124.762L186.222 125.008Z" fill="#008080"/>
<path d="M184.357 150.514C184.511 150.572 184.661 150.642 184.804 150.724L198.022 144.098L198.242 140.508L203.694 140.132L203.986 148.314L186.322 154.165C186.178 154.784 185.849 155.345 185.379 155.773C184.908 156.201 184.319 156.475 183.689 156.559C183.06 156.643 182.419 156.533 181.854 156.244C181.288 155.955 180.823 155.5 180.522 154.94C180.221 154.38 180.097 153.741 180.166 153.109C180.236 152.477 180.497 151.881 180.913 151.4C181.329 150.92 181.882 150.577 182.497 150.419C183.112 150.261 183.761 150.294 184.357 150.514Z" fill="#FFB8B8"/>
<path d="M201.238 128.936C204.491 130.085 205.063 142.539 205.063 142.539C201.238 140.432 196.646 143.88 196.646 143.88C196.646 143.88 195.69 140.623 194.542 136.408C194.195 135.223 194.154 133.969 194.421 132.763C194.689 131.557 195.257 130.438 196.072 129.511C196.072 129.511 197.986 127.785 201.238 128.936Z" fill="#008080"/>
<path d="M197.431 116.733C196.519 116.002 195.275 117.33 195.275 117.33L194.545 110.753C194.545 110.753 189.985 111.3 187.066 110.571C184.147 109.841 183.691 113.22 183.691 113.22C183.541 111.855 183.51 110.48 183.6 109.109C183.782 107.465 186.154 105.821 190.349 104.725C194.545 103.628 196.734 108.379 196.734 108.379C199.653 109.84 198.343 117.464 197.431 116.733Z" fill="#2F2E41"/>
</svg>
